# Blender 3.5.0
# www.blender.org
mtllib all.mtl
o carpete
v -7.000000 0.000000 3.500000
v 7.000000 0.000000 3.500000
v -7.000000 0.000000 -3.500000
v 7.000000 0.000000 -3.500000
vn -0.0000 1.0000 -0.0000
vt 0.000000 0.000000
vt 1.000000 0.000000
vt 0.000000 1.000000
vt 1.000000 1.000000
s 0
usemtl Carpete
f 1/1/1 2/2/1 4/4/1 3/3/1
o wallpaper_center_left
v 3.000000 0.001000 -0.000000
v 3.000000 0.001000 -0.600000
v -7.000000 0.001000 0.000000
v -7.000000 0.001000 -0.600000
v -2.000000 0.001000 -0.000000
v 3.000000 0.001000 -0.300000
v -2.000000 0.001000 -0.600000
v -7.000000 0.001000 -0.300000
v -2.000000 0.001000 -0.300000
vn -0.0000 1.0000 -0.0000
vt 0.000000 0.000000
vt 1.000000 0.000000
vt 0.000000 1.000000
vt 1.000000 1.000000
vt 0.000000 0.500000
vt 0.500000 0.000000
vt 1.000000 0.500000
vt 0.500000 1.000000
vt 0.500000 0.500000
s 0
usemtl wallpaper_image
f 13/13/2 11/11/2 8/8/2 12/12/2
f 9/9/2 13/13/2 12/12/2 7/7/2
f 5/5/2 10/10/2 13/13/2 9/9/2
f 10/10/2 6/6/2 11/11/2 13/13/2
o wallpaper_center_right
v 3.000000 0.001000 -0.000000
v 3.000000 0.001000 0.600000
v -7.000000 0.001000 -0.000000
v -7.000000 0.001000 0.600000
v -2.000000 0.001000 -0.000000
v 3.000000 0.001000 0.300000
v -2.000000 0.001000 0.600000
v -7.000000 0.001000 0.300000
v -2.000000 0.001000 0.300000
vn -0.0000 -1.0000 -0.0000
vt 0.000000 0.000000
vt 1.000000 0.000000
vt 0.000000 1.000000
vt 1.000000 1.000000
vt 0.000000 0.500000
vt 0.500000 0.000000
vt 1.000000 0.500000
vt 0.500000 1.000000
vt 0.500000 0.500000
s 0
usemtl wallpaper_image
f 22/22/3 20/20/3 17/17/3 21/21/3
f 18/18/3 22/22/3 21/21/3 16/16/3
f 14/14/3 19/19/3 22/22/3 18/18/3
f 19/19/3 15/15/3 20/20/3 22/22/3
o wallpaper_left
v 3.000000 0.001000 -2.000000
v 3.000000 0.001000 -2.600000
v -7.000000 0.001000 -2.000000
v -7.000000 0.001000 -2.600000
v -2.000000 0.001000 -2.000000
v 3.000000 0.001000 -2.300000
v -2.000000 0.001000 -2.600000
v -7.000000 0.001000 -2.300000
v -2.000000 0.001000 -2.300000
vn -0.0000 1.0000 -0.0000
vt 0.000000 0.000000
vt 1.000000 0.000000
vt 0.000000 1.000000
vt 1.000000 1.000000
vt 0.000000 0.500000
vt 0.500000 0.000000
vt 1.000000 0.500000
vt 0.500000 1.000000
vt 0.500000 0.500000
s 0
usemtl wallpaper_image
f 31/31/4 29/29/4 26/26/4 30/30/4
f 27/27/4 31/31/4 30/30/4 25/25/4
f 23/23/4 28/28/4 31/31/4 27/27/4
f 28/28/4 24/24/4 29/29/4 31/31/4
o wallpaper_right
v 3.010000 0.001000 1.990000
v 3.010000 0.001000 2.590000
v -6.990000 0.001000 1.990000
v -6.990000 0.001000 2.590000
v -1.990000 0.001000 1.990000
v 3.010000 0.001000 2.289999
v -1.990000 0.001000 2.590000
v -6.990000 0.001000 2.290000
v -1.990000 0.001000 2.290000
vn -0.0000 -1.0000 -0.0000
vt 0.000000 0.000000
vt 1.000000 0.000000
vt 0.000000 1.000000
vt 1.000000 1.000000
vt 0.000000 0.500000
vt 0.500000 0.000000
vt 1.000000 0.500000
vt 0.500000 1.000000
vt 0.500000 0.500000
s 0
usemtl wallpaper_image
f 40/40/5 38/38/5 35/35/5 39/39/5
f 36/36/5 40/40/5 39/39/5 34/34/5
f 32/32/5 37/37/5 40/40/5 36/36/5
f 37/37/5 33/33/5 38/38/5 40/40/5
o caixa
v 4.500000 0.000000 -1.000000
v 4.500000 2.500000 -1.000000
v 4.500000 0.000000 -3.500000
v 4.500000 2.500000 -3.500000
v 7.000000 0.000000 -1.000000
v 7.000000 2.500000 -1.000000
v 7.000000 0.000000 -3.500000
v 7.000000 2.500000 -3.500000
v 4.500000 1.250000 -1.000000
v 4.500000 1.250000 -3.500000
v 7.000000 1.250000 -3.500000
v 7.000000 1.250000 -1.000000
v 4.500000 0.000000 -2.250000
v 4.500000 2.500000 -2.250000
v 7.000000 0.000000 -2.250000
v 7.000000 2.500000 -2.250000
v 7.000000 1.250000 -2.250000
v 4.500000 1.250000 -2.250000
v 4.500000 2.500000 -2.875000
v 7.000000 0.000000 -2.875000
v 4.500000 1.250000 -2.875000
v 4.500000 0.000000 -2.875000
v 7.000000 2.500000 -2.875000
v 7.000000 1.250000 -2.875000
v 4.500000 1.875000 -1.000000
v 4.500000 1.875000 -3.500000
v 7.000000 1.875000 -3.500000
v 7.000000 1.875000 -1.000000
v 7.000000 1.875000 -2.250000
v 4.500000 1.875000 -2.250000
v 7.000000 1.875000 -2.875000
v 4.500000 0.000000 -1.625000
v 7.000000 2.500000 -1.625000
v 7.000000 1.250000 -1.625000
v 4.500000 2.500000 -1.625000
v 7.000000 0.000000 -1.625000
v 4.500000 1.250000 -1.625000
v 7.000000 1.875000 -1.625000
v 4.500000 0.000000 -2.562500
v 7.000000 2.500000 -2.562500
v 7.000000 1.250000 -2.562500
v 4.500000 2.500000 -2.562500
v 7.000000 0.000000 -2.562500
v 4.500000 1.250000 -2.562500
v 7.000000 1.875000 -2.562500
v 4.500000 2.500000 -1.937500
v 7.000000 0.000000 -1.937500
v 4.500000 1.250000 -1.937500
v 4.500000 0.000000 -1.937500
v 7.000000 2.500000 -1.937500
v 7.000000 1.250000 -1.937500
v 7.000000 1.875000 -1.937500
v 4.500000 0.000000 -1.312500
v 7.000000 2.500000 -1.312500
v 7.000000 1.250000 -1.312500
v 7.000000 1.875000 -1.312500
v 4.500000 2.500000 -1.312500
v 7.000000 0.000000 -1.312500
v 4.500000 1.250000 -1.312500
v 4.500000 1.875000 -1.312500
v 4.500000 2.500000 -3.187500
v 7.000000 0.000000 -3.187500
v 4.500000 1.250000 -3.187500
v 4.500000 0.000000 -3.187500
v 7.000000 2.500000 -3.187500
v 7.000000 1.250000 -3.187500
v 7.000000 1.875000 -3.187500
v 4.500000 1.875000 -3.187500
v 4.500000 1.562500 -3.500000
v 7.000000 1.562500 -3.500000
v 7.000000 1.562500 -1.000000
v 7.000000 1.562500 -2.250000
v 4.500000 1.562500 -2.250000
v 7.000000 1.562500 -2.875000
v 4.500000 1.562500 -1.000000
v 7.000000 1.562500 -1.625000
v 7.000000 1.562500 -2.562500
v 7.000000 1.562500 -1.937500
v 4.500000 1.562500 -1.312500
v 7.000000 1.562500 -1.312500
v 4.500000 1.562500 -3.187500
v 7.000000 1.562500 -3.187500
v 4.500000 2.187500 -1.000000
v 4.500000 2.187500 -3.500000
v 7.000000 2.187500 -3.500000
v 7.000000 2.187500 -1.000000
v 7.000000 2.187500 -2.250000
v 4.500000 2.187500 -2.250000
v 7.000000 2.187500 -2.875000
v 4.500000 2.187500 -2.875000
v 4.500000 2.187500 -1.625000
v 7.000000 2.187500 -1.625000
v 4.500000 2.187500 -2.562500
v 7.000000 2.187500 -2.562500
v 7.000000 2.187500 -1.937500
v 4.500000 2.187500 -1.937500
v 4.500000 2.187500 -1.312500
v 7.000000 2.187500 -1.312500
v 7.000000 2.187500 -3.187500
v 4.500000 2.187500 -3.187500
v 4.523094 0.023094 -1.023094
v 4.523094 2.476906 -1.023094
v 4.523094 0.023094 -3.476906
v 4.523094 2.476906 -3.476906
v 6.976906 0.023094 -1.023094
v 6.976906 2.476906 -1.023094
v 6.976906 0.023094 -3.476906
v 6.976906 2.476906 -3.476906
v 4.528284 1.250000 -1.028284
v 4.528284 1.250000 -3.471716
v 6.971716 1.250000 -3.471716
v 6.971716 1.250000 -1.028284
v 4.528284 0.028284 -2.250000
v 4.528284 2.471716 -2.250000
v 6.971716 0.028284 -2.250000
v 6.971716 2.471716 -2.250000
v 6.960000 1.250000 -2.250000
v 4.540000 1.250000 -2.250000
v 4.528284 2.471716 -2.875000
v 6.971716 0.028284 -2.875000
v 4.540000 1.250000 -2.875000
v 4.528284 0.028284 -2.875000
v 6.971716 2.471716 -2.875000
v 6.960000 1.250000 -2.875000
v 4.528284 1.875000 -1.028284
v 4.528284 1.875000 -3.471716
v 6.971716 1.875000 -3.471716
v 6.971716 1.875000 -1.028284
v 6.960000 1.875000 -2.250000
v 4.540000 1.875000 -2.250000
v 6.960000 1.875000 -2.875000
v 4.528284 0.028284 -1.625000
v 6.971716 2.471716 -1.625000
v 6.960000 1.250000 -1.625000
v 4.528284 2.471716 -1.625000
v 6.971716 0.028284 -1.625000
v 4.540000 1.250000 -1.625000
v 6.960000 1.875000 -1.625000
v 4.528284 0.028284 -2.562500
v 6.971716 2.471716 -2.562500
v 6.960000 1.250000 -2.562500
v 4.528284 2.471716 -2.562500
v 6.971716 0.028284 -2.562500
v 4.540000 1.250000 -2.562500
v 6.960000 1.875000 -2.562500
v 4.528284 2.471716 -1.937500
v 6.971716 0.028284 -1.937500
v 4.540000 1.250000 -1.937500
v 4.528284 0.028284 -1.937500
v 6.971716 2.471716 -1.937500
v 6.960000 1.250000 -1.937500
v 6.960000 1.875000 -1.937500
v 4.528284 0.028284 -1.312500
v 6.971716 2.471716 -1.312500
v 6.960000 1.250000 -1.312500
v 6.960000 1.875000 -1.312500
v 4.528284 2.471716 -1.312500
v 6.971716 0.028284 -1.312500
v 4.540000 1.250000 -1.312500
v 4.540000 1.875000 -1.312500
v 4.528284 2.471716 -3.187500
v 6.971716 0.028284 -3.187500
v 4.540000 1.250000 -3.187500
v 4.528284 0.028284 -3.187500
v 6.971716 2.471716 -3.187500
v 6.960000 1.250000 -3.187500
v 6.960000 1.875000 -3.187500
v 4.540000 1.875000 -3.187500
v 4.528284 1.562500 -3.471716
v 6.971716 1.562500 -3.471716
v 6.971716 1.562500 -1.028284
v 6.960000 1.562500 -2.250000
v 4.540000 1.562500 -2.250000
v 6.960000 1.562500 -2.875000
v 4.528284 1.562500 -1.028284
v 6.960000 1.562500 -1.625000
v 6.960000 1.562500 -2.562500
v 6.960000 1.562500 -1.937500
v 4.540000 1.562500 -1.312500
v 6.960000 1.562500 -1.312500
v 4.540000 1.562500 -3.187500
v 6.960000 1.562500 -3.187500
v 4.528284 2.187500 -1.028284
v 4.528284 2.187500 -3.471716
v 6.971716 2.187500 -3.471716
v 6.971716 2.187500 -1.028284
v 6.960000 2.187500 -2.250000
v 4.540000 2.187500 -2.250000
v 6.960000 2.187500 -2.875000
v 4.540000 2.187500 -2.875000
v 4.540000 2.187500 -1.625000
v 6.960000 2.187500 -1.625000
v 4.540000 2.187500 -2.562500
v 6.960000 2.187500 -2.562500
v 6.960000 2.187500 -1.937500
v 4.540000 2.187500 -1.937500
v 4.540000 2.187500 -1.312500
v 6.960000 2.187500 -1.312500
v 6.960000 2.187500 -3.187500
v 4.540000 2.187500 -3.187500
v 4.500000 1.875000 -2.450000
v 4.500000 1.562500 -2.450000
v 4.500000 1.875000 -3.050000
v 4.500000 1.562500 -3.050000
v 4.500000 1.500000 -3.050000
v 4.500000 1.500000 -2.875000
v 4.500000 1.500000 -2.450000
v 4.500000 1.500000 -2.562500
v 4.500000 2.000000 -2.875000
v 4.500000 2.000000 -3.050000
v 4.500000 2.000000 -2.562500
v 4.500000 2.000000 -2.450000
v 4.540000 1.562500 -2.450000
v 4.540000 1.875000 -2.450000
v 4.540000 1.562500 -3.050000
v 4.540000 1.875000 -3.050000
v 4.540000 1.500000 -3.050000
v 4.540000 1.500000 -2.875000
v 4.540000 1.500000 -2.562500
v 4.540000 1.500000 -2.450000
v 4.540000 2.000000 -3.050000
v 4.540000 2.000000 -2.875000
v 4.540000 2.000000 -2.450000
v 4.540000 2.000000 -2.562500
v 4.500000 1.875000 -1.937685
v 4.500000 1.562500 -1.937685
v 4.500000 1.875000 -1.537684
v 4.500000 1.562500 -1.537684
v 4.500000 1.550000 -1.625000
v 4.500000 1.550000 -1.937500
v 4.500000 1.550000 -1.537684
v 4.500000 1.550000 -1.937685
v 4.500000 1.950000 -1.625000
v 4.500000 1.950000 -1.937500
v 4.500000 1.950000 -1.537684
v 4.500000 1.950000 -1.937685
v 4.540000 1.562500 -1.937685
v 4.540000 1.875000 -1.937685
v 4.540000 1.562500 -1.537684
v 4.540000 1.875000 -1.537684
v 4.540000 1.550000 -1.937500
v 4.540000 1.550000 -1.625000
v 4.540000 1.550000 -1.537684
v 4.540000 1.550000 -1.937685
v 4.540000 1.950000 -1.937500
v 4.540000 1.950000 -1.625000
v 4.540000 1.950000 -1.537684
v 4.540000 1.950000 -1.937685
v 4.489999 2.020080 -2.425904
v 4.489999 1.479920 -2.425904
v 4.489999 2.020080 -3.074096
v 4.489999 1.479920 -3.074096
v 4.499999 2.020080 -3.074096
v 4.499999 2.020080 -2.425904
v 4.499999 1.479920 -2.425904
v 4.499999 1.479920 -3.074096
v 4.489999 1.875000 -2.450000
v 4.489999 1.562500 -2.450000
v 4.489999 1.875000 -3.050000
v 4.489999 1.562500 -3.050000
v 4.489999 1.500000 -3.050000
v 4.489999 1.500000 -2.875000
v 4.489999 1.500000 -2.450000
v 4.489999 1.500000 -2.562500
v 4.489999 2.000000 -2.875000
v 4.489999 2.000000 -3.050000
v 4.489999 2.000000 -2.562500
v 4.489999 2.000000 -2.450000
v 4.499999 2.000000 -2.450000
v 4.499999 1.500000 -2.450000
v 4.499999 1.500000 -3.050000
v 4.499999 2.000000 -3.050000
v 4.489999 1.875000 -3.074096
v 4.489999 1.562500 -3.074096
v 4.489999 1.562500 -2.425904
v 4.489999 1.875000 -2.425904
v 4.489999 1.479920 -2.875000
v 4.489999 1.479920 -2.562500
v 4.489999 2.020080 -2.562500
v 4.489999 2.020080 -2.875000
v 4.489999 1.500000 -3.050000
v 4.489999 1.500000 -3.050000
v 4.493976 1.960000 -1.540000
v 4.493976 1.540000 -1.540000
v 4.493976 1.960000 -1.960000
v 4.493976 1.540000 -1.960000
v 4.503976 1.960000 -1.960000
v 4.503976 1.960000 -1.540000
v 4.503976 1.540000 -1.540000
v 4.503976 1.540000 -1.960000
v 4.493976 1.847194 -1.555613
v 4.493976 1.604210 -1.555613
v 4.493976 1.847194 -1.944387
v 4.493976 1.604210 -1.944387
v 4.493976 1.555613 -1.944387
v 4.493976 1.555613 -1.830995
v 4.493976 1.555613 -1.555613
v 4.493976 1.555613 -1.628508
v 4.493976 1.944387 -1.830995
v 4.493976 1.944387 -1.944387
v 4.493976 1.944387 -1.628508
v 4.493976 1.944387 -1.555613
v 4.503976 1.944387 -1.555613
v 4.503976 1.555613 -1.555613
v 4.503976 1.555613 -1.944387
v 4.503976 1.944387 -1.944387
v 4.493976 1.847194 -1.960000
v 4.493976 1.604210 -1.960000
v 4.493976 1.604210 -1.540000
v 4.493976 1.847194 -1.540000
v 4.493976 1.540000 -1.830995
v 4.493976 1.540000 -1.628508
v 4.493976 1.960000 -1.628508
v 4.493976 1.960000 -1.830995
v 4.493976 1.555613 -1.944387
v 4.493976 1.555613 -1.944387
vn -1.0000 -0.0000 -0.0000
vn -0.0000 -0.0000 -1.0000
vn 1.0000 -0.0000 -0.0000
vn -0.0000 -0.0000 1.0000
vn -0.0000 -1.0000 -0.0000
vn -0.0000 1.0000 -0.0000
vn 0.9991 0.0292 -0.0292
vn -0.0000 0.0179 0.9998
vn -0.9991 0.0292 0.0292
vn -0.0000 0.0179 -0.9998
vn -0.0000 0.9998 0.0179
vn -0.0000 -0.9998 0.0179
vn -0.0000 -0.0042 -1.0000
vn -0.9995 -0.0068 0.0294
vn -0.0000 -0.0042 1.0000
vn 0.9995 -0.0068 -0.0294
vn 1.0000 -0.0096 -0.0000
vn -1.0000 -0.0096 -0.0000
vn -0.9992 0.0412 -0.0000
vn 0.9992 0.0412 -0.0000
vn -0.9992 -0.0000 0.0412
vn 0.9992 -0.0000 -0.0412
vn 0.9995 -0.0068 0.0294
vn 0.9991 0.0292 0.0292
vn 0.9992 -0.0000 0.0412
vn -0.9992 -0.0000 -0.0412
vn -0.9995 -0.0068 -0.0294
vn -0.0000 -0.9998 -0.0179
vn -0.0000 0.9998 -0.0179
vn -0.9991 0.0292 -0.0292
vt 0.125000 0.750000
vt 0.375000 1.000000
vt 0.375000 0.000000
vt 0.625000 1.000000
vt 0.875000 0.750000
vt 0.625000 0.000000
vt 0.375000 0.250000
vt 0.125000 0.500000
vt 0.625000 0.250000
vt 0.875000 0.500000
vt 0.375000 0.750000
vt 0.625000 0.750000
vt 0.375000 0.500000
vt 0.625000 0.500000
vt 0.500000 0.000000
vt 0.500000 1.000000
vt 0.500000 0.250000
vt 0.500000 0.500000
vt 0.500000 0.750000
vt 0.375000 0.125000
vt 0.125000 0.625000
vt 0.625000 0.125000
vt 0.875000 0.625000
vt 0.375000 0.625000
vt 0.625000 0.625000
vt 0.500000 0.625000
vt 0.500000 0.125000
vt 0.875000 0.562500
vt 0.625000 0.187500
vt 0.375000 0.562500
vt 0.500000 0.187500
vt 0.125000 0.562500
vt 0.375000 0.187500
vt 0.625000 0.562500
vt 0.500000 0.562500
vt 0.562500 0.000000
vt 0.562500 1.000000
vt 0.562500 0.250000
vt 0.562500 0.500000
vt 0.562500 0.750000
vt 0.562500 0.625000
vt 0.562500 0.125000
vt 0.562500 0.562500
vt 0.375000 0.062500
vt 0.125000 0.687500
vt 0.625000 0.687500
vt 0.500000 0.687500
vt 0.625000 0.062500
vt 0.875000 0.687500
vt 0.375000 0.687500
vt 0.500000 0.062500
vt 0.562500 0.687500
vt 0.375000 0.156250
vt 0.125000 0.593750
vt 0.625000 0.593750
vt 0.500000 0.593750
vt 0.625000 0.156250
vt 0.875000 0.593750
vt 0.375000 0.593750
vt 0.500000 0.156250
vt 0.562500 0.593750
vt 0.875000 0.656250
vt 0.625000 0.093750
vt 0.375000 0.656250
vt 0.500000 0.093750
vt 0.125000 0.656250
vt 0.375000 0.093750
vt 0.625000 0.656250
vt 0.500000 0.656250
vt 0.562500 0.656250
vt 0.375000 0.031250
vt 0.125000 0.718750
vt 0.625000 0.718750
vt 0.500000 0.718750
vt 0.562500 0.718750
vt 0.625000 0.031250
vt 0.875000 0.718750
vt 0.375000 0.718750
vt 0.500000 0.031250
vt 0.562500 0.031250
vt 0.875000 0.531250
vt 0.625000 0.218750
vt 0.375000 0.531250
vt 0.500000 0.218750
vt 0.125000 0.531250
vt 0.375000 0.218750
vt 0.625000 0.531250
vt 0.500000 0.531250
vt 0.562500 0.531250
vt 0.562500 0.218750
vt 0.531250 0.250000
vt 0.531250 0.500000
vt 0.531250 0.750000
vt 0.531250 0.625000
vt 0.531250 0.125000
vt 0.531250 0.562500
vt 0.531250 0.000000
vt 0.531250 1.000000
vt 0.531250 0.687500
vt 0.531250 0.593750
vt 0.531250 0.656250
vt 0.531250 0.031250
vt 0.531250 0.718750
vt 0.531250 0.218750
vt 0.531250 0.531250
vt 0.593750 0.000000
vt 0.593750 1.000000
vt 0.593750 0.250000
vt 0.593750 0.500000
vt 0.593750 0.750000
vt 0.593750 0.625000
vt 0.593750 0.125000
vt 0.593750 0.562500
vt 0.593750 0.187500
vt 0.593750 0.062500
vt 0.593750 0.687500
vt 0.593750 0.156250
vt 0.593750 0.593750
vt 0.593750 0.656250
vt 0.593750 0.093750
vt 0.593750 0.031250
vt 0.593750 0.718750
vt 0.593750 0.531250
vt 0.593750 0.218750
vt 0.125000 0.750000
vt 0.375000 1.000000
vt 0.375000 0.000000
vt 0.625000 1.000000
vt 0.875000 0.750000
vt 0.625000 0.000000
vt 0.375000 0.250000
vt 0.125000 0.500000
vt 0.625000 0.250000
vt 0.875000 0.500000
vt 0.375000 0.750000
vt 0.625000 0.750000
vt 0.375000 0.500000
vt 0.625000 0.500000
vt 0.500000 0.000000
vt 0.500000 1.000000
vt 0.500000 0.250000
vt 0.500000 0.500000
vt 0.500000 0.750000
vt 0.375000 0.125000
vt 0.125000 0.625000
vt 0.625000 0.125000
vt 0.875000 0.625000
vt 0.375000 0.625000
vt 0.625000 0.625000
vt 0.500000 0.625000
vt 0.500000 0.125000
vt 0.875000 0.562500
vt 0.625000 0.187500
vt 0.375000 0.562500
vt 0.500000 0.187500
vt 0.125000 0.562500
vt 0.375000 0.187500
vt 0.625000 0.562500
vt 0.500000 0.562500
vt 0.562500 0.000000
vt 0.562500 1.000000
vt 0.562500 0.250000
vt 0.562500 0.500000
vt 0.562500 0.750000
vt 0.562500 0.625000
vt 0.562500 0.125000
vt 0.562500 0.562500
vt 0.375000 0.062500
vt 0.125000 0.687500
vt 0.625000 0.687500
vt 0.500000 0.687500
vt 0.625000 0.062500
vt 0.875000 0.687500
vt 0.375000 0.687500
vt 0.500000 0.062500
vt 0.562500 0.687500
vt 0.375000 0.156250
vt 0.125000 0.593750
vt 0.625000 0.593750
vt 0.500000 0.593750
vt 0.625000 0.156250
vt 0.875000 0.593750
vt 0.375000 0.593750
vt 0.500000 0.156250
vt 0.562500 0.593750
vt 0.875000 0.656250
vt 0.625000 0.093750
vt 0.375000 0.656250
vt 0.500000 0.093750
vt 0.125000 0.656250
vt 0.375000 0.093750
vt 0.625000 0.656250
vt 0.500000 0.656250
vt 0.562500 0.656250
vt 0.375000 0.031250
vt 0.125000 0.718750
vt 0.625000 0.718750
vt 0.500000 0.718750
vt 0.562500 0.718750
vt 0.625000 0.031250
vt 0.875000 0.718750
vt 0.375000 0.718750
vt 0.500000 0.031250
vt 0.562500 0.031250
vt 0.875000 0.531250
vt 0.625000 0.218750
vt 0.375000 0.531250
vt 0.500000 0.218750
vt 0.125000 0.531250
vt 0.375000 0.218750
vt 0.625000 0.531250
vt 0.500000 0.531250
vt 0.562500 0.531250
vt 0.562500 0.218750
vt 0.531250 0.250000
vt 0.531250 0.500000
vt 0.531250 0.750000
vt 0.531250 0.625000
vt 0.531250 0.125000
vt 0.531250 0.562500
vt 0.531250 0.000000
vt 0.531250 1.000000
vt 0.531250 0.687500
vt 0.531250 0.593750
vt 0.531250 0.656250
vt 0.531250 0.031250
vt 0.531250 0.718750
vt 0.531250 0.218750
vt 0.531250 0.531250
vt 0.593750 0.000000
vt 0.593750 1.000000
vt 0.593750 0.250000
vt 0.593750 0.500000
vt 0.593750 0.750000
vt 0.593750 0.625000
vt 0.593750 0.125000
vt 0.593750 0.562500
vt 0.593750 0.187500
vt 0.593750 0.062500
vt 0.593750 0.687500
vt 0.593750 0.156250
vt 0.593750 0.593750
vt 0.593750 0.656250
vt 0.593750 0.093750
vt 0.593750 0.031250
vt 0.593750 0.718750
vt 0.593750 0.531250
vt 0.593750 0.218750
vt 0.562500 0.145000
vt 0.250000 0.000000
vt 0.531250 0.145000
vt 0.875000 0.000000
vt 0.562500 0.205000
vt 0.250000 1.000000
vt 0.531250 0.205000
vt 0.875000 1.000000
vt 0.525000 0.205000
vt 1.000000 1.000000
vt 0.525000 0.187500
vt 1.000000 0.708333
vt 0.525000 0.145000
vt 1.000000 0.000000
vt 0.525000 0.156250
vt 1.000000 0.187500
vt 0.575000 0.187500
vt 0.000000 0.708333
vt 0.575000 0.205000
vt 0.000000 1.000000
vt 0.575000 0.156250
vt 0.000000 0.187500
vt 0.575000 0.145000
vt 0.000000 0.000000
vt 0.531250 0.145000
vt 0.875000 0.000000
vt 0.562500 0.145000
vt 0.250000 0.000000
vt 0.531250 0.205000
vt 0.875000 1.000000
vt 0.562500 0.205000
vt 0.250000 1.000000
vt 0.525000 0.205000
vt 1.000000 1.000000
vt 0.525000 0.187500
vt 1.000000 0.708333
vt 0.525000 0.156250
vt 1.000000 0.187500
vt 0.525000 0.145000
vt 1.000000 0.000000
vt 0.575000 0.205000
vt 0.000000 1.000000
vt 0.575000 0.187500
vt 0.000000 0.708333
vt 0.575000 0.145000
vt 0.000000 0.000000
vt 0.575000 0.156250
vt 0.000000 0.187500
vt 0.562500 0.093768
vt 0.187500 1.000000
vt 0.531250 0.093768
vt 0.968750 1.000000
vt 0.562500 0.053768
vt 0.187500 0.000000
vt 0.531250 0.053768
vt 0.968750 0.000000
vt 0.530000 0.062500
vt 1.000000 0.218289
vt 0.530000 0.093750
vt 1.000000 0.999539
vt 0.530000 0.053768
vt 1.000000 0.000000
vt 0.530000 0.093768
vt 1.000000 1.000000
vt 0.570000 0.062500
vt 0.000000 0.218289
vt 0.570000 0.093750
vt 0.000000 0.999539
vt 0.570000 0.053768
vt 0.000000 0.000000
vt 0.570000 0.093768
vt 0.000000 1.000000
vt 0.531250 0.093768
vt 0.968750 1.000000
vt 0.562500 0.093768
vt 0.187500 1.000000
vt 0.531250 0.053768
vt 0.968750 0.000000
vt 0.562500 0.053768
vt 0.187500 0.000000
vt 0.530000 0.093750
vt 1.000000 0.999539
vt 0.530000 0.062500
vt 1.000000 0.218289
vt 0.530000 0.053768
vt 1.000000 0.000000
vt 0.530000 0.093768
vt 1.000000 1.000000
vt 0.570000 0.093750
vt 0.000000 0.999539
vt 0.570000 0.062500
vt 0.000000 0.218289
vt 0.570000 0.053768
vt 0.000000 0.000000
vt 0.570000 0.093768
vt 0.000000 1.000000
vt 0.000000 0.000000
vt 1.000000 0.000000
vt 0.000000 1.000000
vt 1.000000 1.000000
vt 0.000000 1.000000
vt 0.000000 0.000000
vt 1.000000 0.000000
vt 1.000000 1.000000
vt 0.268587 0.037174
vt 0.250000 0.000000
vt 0.847120 0.037174
vt 0.875000 0.000000
vt 0.268587 0.962826
vt 0.250000 1.000000
vt 0.847120 0.962826
vt 0.875000 1.000000
vt 0.962826 0.962826
vt 1.000000 1.000000
vt 0.962826 0.692844
vt 1.000000 0.708333
vt 0.962826 0.037174
vt 1.000000 0.000000
vt 0.962826 0.210734
vt 1.000000 0.187500
vt 0.037174 0.692844
vt 0.000000 0.708333
vt 0.037174 0.962826
vt 0.000000 1.000000
vt 0.037174 0.210734
vt 0.000000 0.187500
vt 0.037174 0.037174
vt 0.000000 0.000000
vt 0.037174 0.037174
vt 0.000000 0.000000
vt 0.962826 0.037174
vt 1.000000 0.000000
vt 0.962826 0.962826
vt 1.000000 1.000000
vt 0.037174 0.962826
vt 0.000000 1.000000
vt 0.268587 1.000000
vt 0.847120 1.000000
vt 0.847120 0.000000
vt 0.268587 0.000000
vt 1.000000 0.692844
vt 1.000000 0.210734
vt 0.000000 0.210734
vt 0.000000 0.692844
vt 0.962826 0.962826
vt 1.000000 1.000000
vt 0.962826 0.962826
vt 0.000000 0.000000
vt 1.000000 0.000000
vt 0.000000 1.000000
vt 1.000000 1.000000
vt 0.000000 1.000000
vt 0.000000 0.000000
vt 1.000000 0.000000
vt 1.000000 1.000000
vt 0.268587 0.037174
vt 0.250000 0.000000
vt 0.847120 0.037174
vt 0.875000 0.000000
vt 0.268587 0.962826
vt 0.250000 1.000000
vt 0.847120 0.962826
vt 0.875000 1.000000
vt 0.962826 0.962826
vt 1.000000 1.000000
vt 0.962826 0.692844
vt 1.000000 0.708333
vt 0.962826 0.037174
vt 1.000000 0.000000
vt 0.962826 0.210734
vt 1.000000 0.187500
vt 0.037174 0.692844
vt 0.000000 0.708333
vt 0.037174 0.962826
vt 0.000000 1.000000
vt 0.037174 0.210734
vt 0.000000 0.187500
vt 0.037174 0.037174
vt 0.000000 0.000000
vt 0.037174 0.037174
vt 0.000000 0.000000
vt 0.962826 0.037174
vt 1.000000 0.000000
vt 0.962826 0.962826
vt 1.000000 1.000000
vt 0.037174 0.962826
vt 0.000000 1.000000
vt 0.268587 1.000000
vt 0.847120 1.000000
vt 0.847120 0.000000
vt 0.268587 0.000000
vt 1.000000 0.692844
vt 1.000000 0.210734
vt 0.000000 0.210734
vt 0.000000 0.692844
vt 0.962826 0.962826
vt 1.000000 1.000000
vt 0.962826 0.962826
s 0
usemtl kraft
f 140/164/6 101/122/6 44/49/6 124/148/6
f 124/148/7 44/49/7 48/54/7 125/149/7
f 138/162/8 94/113/8 46/52/8 126/150/8
f 126/150/9 46/52/9 42/44/9 123/147/9
f 93/112/10 98/118/10 45/51/10 41/41/10
f 94/113/11 97/117/11 42/45/11 46/52/11
f 45/51/9 52/59/9 49/56/9 41/42/9
f 98/118/8 95/114/8 52/59/8 45/51/8
f 43/47/7 50/57/7 51/58/7 47/53/7
f 104/126/6 103/124/6 50/57/6 43/47/6
f 89/107/6 88/105/6 58/67/6 53/60/6
f 83/99/8 81/96/8 57/66/8 55/64/8
f 80/95/11 82/98/11 54/63/11 56/65/11
f 79/94/10 83/99/10 55/64/10 53/61/10
f 134/158/8 80/95/8 56/65/8 127/151/8
f 136/160/6 86/103/6 54/62/6 128/152/6
f 139/163/8 105/127/8 63/74/8 129/153/8
f 104/125/10 102/123/10 60/70/10 62/72/10
f 105/127/11 101/121/11 59/68/11 63/74/11
f 102/123/8 106/128/8 64/75/8 60/70/8
f 79/93/6 84/100/6 61/71/6 62/73/6
f 133/157/6 82/97/6 59/69/6 130/154/6
f 122/145/8 107/129/8 71/83/8 114/136/8
f 265/337/6 70/82/6 113/135/6 266/339/6
f 117/140/8 85/101/8 69/81/8 112/134/8
f 111/133/9 68/80/9 65/77/9 115/138/9
f 120/143/8 96/115/8 68/80/8 111/133/8
f 109/131/7 66/78/7 67/79/7 110/132/7
f 121/144/6 108/130/6 66/78/6 109/131/6
f 118/141/8 92/110/8 78/92/8 116/139/8
f 119/142/6 100/120/6 267/341/6 268/343/6
f 137/161/6 97/116/6 75/88/6 131/155/6
f 93/111/6 99/119/6 77/91/6 72/84/6
f 87/104/8 91/109/8 74/87/8 76/90/8
f 90/108/11 86/102/11 75/89/11 73/86/11
f 89/106/10 87/104/10 76/90/10 72/85/10
f 135/159/8 90/108/8 73/86/8 132/156/8
f 114/136/8 71/83/8 85/101/8 117/140/8
f 113/135/6 70/82/6 241/289/6 242/291/6
f 128/152/6 54/62/6 82/97/6 133/157/6
f 53/60/6 58/67/6 84/100/6 79/93/6
f 129/153/8 63/74/8 80/95/8 134/158/8
f 62/72/10 60/70/10 83/99/10 79/94/10
f 63/74/11 59/68/11 82/98/11 80/95/11
f 60/70/8 64/75/8 81/96/8 83/99/8
f 127/151/8 56/65/8 90/108/8 135/159/8
f 53/61/10 55/64/10 87/104/10 89/106/10
f 56/65/11 54/63/11 86/102/11 90/108/11
f 55/64/8 57/66/8 91/109/8 87/104/8
f 112/134/8 69/81/8 92/110/8 118/141/8
f 131/155/6 75/88/6 86/103/6 136/160/6
f 72/84/6 77/91/6 88/105/6 89/107/6
f 41/43/6 49/55/6 99/119/6 93/111/6
f 123/146/6 42/46/6 97/116/6 137/161/6
f 115/137/6 65/76/6 100/120/6 119/142/6
f 116/139/8 78/92/8 96/115/8 120/143/8
f 76/90/8 74/87/8 95/114/8 98/118/8
f 73/86/11 75/89/11 97/117/11 94/113/11
f 72/85/10 76/90/10 98/118/10 93/112/10
f 132/156/8 73/86/8 94/113/8 138/162/8
f 243/293/6 108/130/6 121/144/6 244/295/6
f 110/132/8 67/79/8 107/129/8 122/145/8
f 47/53/8 51/58/8 106/128/8 102/123/8
f 48/54/11 44/50/11 101/121/11 105/127/11
f 43/48/10 47/53/10 102/123/10 104/125/10
f 125/149/8 48/54/8 105/127/8 139/163/8
f 62/73/6 61/71/6 103/124/6 104/126/6
f 130/154/6 59/69/6 101/122/6 140/164/6
f 51/58/8 110/132/8 122/145/8 106/128/8
f 244/295/6 121/144/6 103/124/6 61/71/6 246/299/6 245/297/6
f 74/87/8 116/139/8 120/143/8 95/114/8
f 49/55/6 115/137/6 119/142/6 99/119/6
f 88/105/6 77/91/6 269/345/6 270/347/6
f 57/66/8 112/134/8 118/141/8 91/109/8
f 248/303/6 84/100/6 58/67/6 113/135/6 242/291/6 247/301/6
f 64/75/8 114/136/8 117/140/8 81/96/8
f 77/91/6 99/119/6 119/142/6 268/343/6 271/349/6 269/345/6
f 91/109/8 118/141/8 116/139/8 74/87/8
f 103/124/6 121/144/6 109/131/6 50/57/6
f 50/57/7 109/131/7 110/132/7 51/58/7
f 95/114/8 120/143/8 111/133/8 52/59/8
f 52/59/9 111/133/9 115/138/9 49/56/9
f 81/96/8 117/140/8 112/134/8 57/66/8
f 113/135/6 58/67/6 88/105/6 270/347/6 272/351/6 266/339/6
f 106/128/8 122/145/8 114/136/8 64/75/8
f 61/71/6 84/100/6 248/303/6 246/299/6
f 250/307/6 249/305/6 130/154/6 140/164/6 108/130/6 243/293/6
f 67/79/8 125/149/8 139/163/8 107/129/8
f 78/92/8 132/156/8 138/162/8 96/115/8
f 65/76/6 123/146/6 137/161/6 100/120/6
f 273/353/6 131/155/6 136/160/6 274/355/6
f 69/81/8 127/151/8 135/159/8 92/110/8
f 71/83/8 129/153/8 134/158/8 85/101/8
f 241/289/6 70/82/6 128/152/6 133/157/6 251/309/6 252/311/6
f 92/110/8 135/159/8 132/156/8 78/92/8
f 100/120/6 137/161/6 131/155/6 273/353/6 275/357/6 267/341/6
f 251/309/6 133/157/6 130/154/6 249/305/6
f 107/129/8 139/163/8 129/153/8 71/83/8
f 136/160/6 128/152/6 70/82/6 265/337/6 276/359/6 274/355/6
f 85/101/8 134/158/8 127/151/8 69/81/8
f 68/80/9 126/150/9 123/147/9 65/77/9
f 96/115/8 138/162/8 126/150/8 68/80/8
f 66/78/7 124/148/7 125/149/7 67/79/7
f 108/130/6 140/164/6 124/148/6 66/78/6
f 240/288/12 224/272/12 144/173/12 201/246/12
f 224/272/13 225/273/13 148/178/13 144/173/13
f 238/286/14 226/274/14 146/176/14 194/237/14
f 226/274/15 223/271/15 142/168/15 146/176/15
f 193/236/16 141/165/16 145/175/16 198/242/16
f 194/237/17 146/176/17 142/169/17 197/241/17
f 145/175/18 141/166/18 149/180/18 152/183/18
f 198/242/19 145/175/19 152/183/19 195/238/19
f 143/171/20 147/177/20 151/182/20 150/181/20
f 204/250/21 143/171/21 150/181/21 203/248/21
f 189/231/22 153/184/22 158/191/22 188/229/22
f 183/223/23 155/188/23 157/190/23 181/220/23
f 180/219/10 156/189/10 154/187/10 182/222/10
f 179/218/11 153/185/11 155/188/11 183/223/11
f 234/282/24 227/275/24 156/189/24 180/219/24
f 236/284/25 228/276/25 154/186/25 186/227/25
f 239/287/24 229/277/24 163/198/24 205/251/24
f 204/249/11 162/196/11 160/194/11 202/247/11
f 205/251/10 163/198/10 159/192/10 201/245/10
f 202/247/23 160/194/23 164/199/23 206/252/23
f 179/217/22 162/197/22 161/195/22 184/224/22
f 233/281/25 230/278/25 159/193/25 182/221/25
f 222/269/6 214/260/6 171/207/6 207/253/6
f 213/259/8 170/206/8 278/363/8 277/361/8
f 217/264/6 212/258/6 169/205/6 185/225/6
f 211/257/7 215/262/7 165/201/7 168/204/7
f 220/267/26 211/257/26 168/204/26 196/239/26
f 209/255/9 210/256/9 167/203/9 166/202/9
f 221/268/27 209/255/27 166/202/27 208/254/27
f 218/265/6 216/263/6 178/216/6 192/234/6
f 280/367/8 200/244/8 219/266/8 279/365/8
f 237/285/25 231/279/25 175/212/25 197/240/25
f 193/235/22 172/208/22 177/215/22 199/243/22
f 187/228/23 176/214/23 174/211/23 191/233/23
f 190/232/10 173/210/10 175/213/10 186/226/10
f 189/230/11 172/209/11 176/214/11 187/228/11
f 235/283/24 232/280/24 173/210/24 190/232/24
f 214/260/6 217/264/6 185/225/6 171/207/6
f 254/315/8 170/206/8 213/259/8 253/313/8
f 228/276/25 233/281/25 182/221/25 154/186/25
f 153/184/22 179/217/22 184/224/22 158/191/22
f 229/277/24 234/282/24 180/219/24 163/198/24
f 162/196/11 179/218/11 183/223/11 160/194/11
f 163/198/10 180/219/10 182/222/10 159/192/10
f 160/194/23 183/223/23 181/220/23 164/199/23
f 227/275/24 235/283/24 190/232/24 156/189/24
f 153/185/11 189/230/11 187/228/11 155/188/11
f 156/189/10 190/232/10 186/226/10 154/187/10
f 155/188/23 187/228/23 191/233/23 157/190/23
f 212/258/6 218/265/6 192/234/6 169/205/6
f 231/279/25 236/284/25 186/227/25 175/212/25
f 172/208/22 189/231/22 188/229/22 177/215/22
f 141/167/28 193/235/28 199/243/28 149/179/28
f 223/270/29 237/285/29 197/240/29 142/170/29
f 215/261/30 219/266/30 200/244/30 165/200/30
f 216/263/6 220/267/6 196/239/6 178/216/6
f 176/214/23 198/242/23 195/238/23 174/211/23
f 173/210/10 194/237/10 197/241/10 175/213/10
f 172/209/11 193/236/11 198/242/11 176/214/11
f 232/280/24 238/286/24 194/237/24 173/210/24
f 255/317/8 221/268/8 208/254/8 256/319/8
f 210/256/31 222/269/31 207/253/31 167/203/31
f 147/177/32 202/247/32 206/252/32 151/182/32
f 148/178/33 205/251/33 201/245/33 144/174/33
f 143/172/34 204/249/34 202/247/34 147/177/34
f 225/273/35 239/287/35 205/251/35 148/178/35
f 162/197/22 204/250/22 203/248/22 161/195/22
f 230/278/25 240/288/25 201/246/25 159/193/25
f 151/182/31 206/252/31 222/269/31 210/256/31
f 257/321/8 258/323/8 161/195/8 203/248/8 221/268/8 255/317/8
f 174/211/6 195/238/6 220/267/6 216/263/6
f 149/179/30 199/243/30 219/266/30 215/261/30
f 282/371/8 177/215/8 188/229/8 281/369/8
f 157/190/6 191/233/6 218/265/6 212/258/6
f 253/313/8 213/259/8 158/191/8 184/224/8 259/325/8 260/327/8
f 164/199/6 181/220/6 217/264/6 214/260/6
f 219/266/8 199/243/8 177/215/8 282/371/8 283/373/8 279/365/8
f 191/233/6 174/211/6 216/263/6 218/265/6
f 203/248/27 150/181/27 209/255/27 221/268/27
f 150/181/9 151/182/9 210/256/9 209/255/9
f 195/238/26 152/183/26 211/257/26 220/267/26
f 152/183/7 149/180/7 215/262/7 211/257/7
f 181/220/6 157/190/6 212/258/6 217/264/6
f 281/369/8 188/229/8 158/191/8 213/259/8 277/361/8 284/375/8
f 206/252/6 164/199/6 214/260/6 222/269/6
f 259/325/8 184/224/8 161/195/8 258/323/8
f 256/319/8 208/254/8 240/288/8 230/278/8 262/331/8 261/329/8
f 167/203/31 207/253/31 239/287/31 225/273/31
f 178/216/6 196/239/6 238/286/6 232/280/6
f 165/200/30 200/244/30 237/285/30 223/270/30
f 285/377/8 236/284/8 231/279/8 286/379/8
f 169/205/6 192/234/6 235/283/6 227/275/6
f 171/207/6 185/225/6 234/282/6 229/277/6
f 263/333/8 264/335/8 233/281/8 228/276/8 170/206/8 254/315/8
f 192/234/6 178/216/6 232/280/6 235/283/6
f 286/379/8 231/279/8 237/285/8 200/244/8 280/367/8 287/381/8
f 262/331/8 230/278/8 233/281/8 264/335/8
f 207/253/6 171/207/6 229/277/6 239/287/6
f 170/206/8 228/276/8 236/284/8 285/377/8 288/383/8 278/363/8
f 185/225/6 169/205/6 227/275/6 234/282/6
f 168/204/7 165/201/7 223/271/7 226/274/7
f 196/239/26 168/204/26 226/274/26 238/286/26
f 166/202/9 167/203/9 225/273/9 224/272/9
f 208/254/27 166/202/27 224/272/27 240/288/27
f 256/320/9 261/330/9 250/308/9 243/294/9 244/296/9 245/298/9 257/322/9 255/318/9
f 260/328/7 247/302/7 242/292/7 241/290/7 252/312/7 263/334/7 254/316/7 253/314/7
f 258/324/11 257/322/11 245/298/11 246/300/11 248/304/11 247/302/11 260/328/11 259/326/11
f 263/334/10 252/312/10 251/310/10 249/306/10 250/308/10 261/330/10 262/332/10 264/336/10
f 288/384/9 276/360/9 265/338/9 266/340/9 272/352/9 284/376/9 277/362/9 278/364/9
f 268/344/7 267/342/7 275/358/7 287/382/7 280/368/7 279/366/7 283/374/7 271/350/7
f 281/370/11 284/376/11 272/352/11 270/348/11 269/346/11 271/350/11 283/374/11 282/372/11
f 273/354/10 274/356/10 276/360/10 288/384/10 285/378/10 286/380/10 287/382/10 275/358/10
usemtl blue
f 299/397/6 306/411/6 305/409/6 320/432/6 291/387/6 313/425/6
f 319/431/6 307/413/6 308/415/6 297/393/6 316/428/6 289/385/6
f 320/432/6 305/409/6 307/413/6 319/431/6
f 314/426/6 300/399/6 299/397/6 313/425/6
f 301/401/6 300/399/6 314/426/6 292/388/6 317/429/6 302/403/6 321/433/6 322/435/6
f 301/401/6 322/435/6 321/433/6
f 298/395/6 303/405/6 304/407/6 318/430/6 290/386/6 315/427/6
f 318/430/6 304/407/6 302/403/6 317/429/6
f 297/393/6 298/395/6 315/427/6 316/428/6
f 309/417/8 294/390/8 295/391/8 296/392/8 293/389/8 312/423/8 311/421/8 310/419/8
f 293/389/8 294/390/8 309/417/8 312/423/8
f 293/389/7 296/392/7 292/388/7 314/426/7 313/425/7 291/387/7
f 290/386/9 295/391/9 294/390/9 289/385/9 316/428/9 315/427/9
f 292/388/10 296/392/10 295/391/10 290/386/10 318/430/10 317/429/10
f 294/390/11 293/389/11 291/387/11 320/432/11 319/431/11 289/385/11
f 312/424/9 306/412/9 299/398/9 300/400/9 301/402/9 311/422/9
f 303/406/7 298/396/7 297/394/7 308/416/7 309/418/7 310/420/7
f 301/402/11 321/434/11 302/404/11 304/408/11 303/406/11 310/420/11 311/422/11
f 309/418/10 308/416/10 307/414/10 305/410/10 306/412/10 312/424/10
usemtl red
f 333/448/6 340/462/6 339/460/6 354/483/6 325/438/6 347/476/6
f 353/482/6 341/464/6 342/466/6 331/444/6 350/479/6 323/436/6
f 354/483/6 339/460/6 341/464/6 353/482/6
f 348/477/6 334/450/6 333/448/6 347/476/6
f 335/452/6 334/450/6 348/477/6 326/439/6 351/480/6 336/454/6 355/484/6 356/486/6
f 335/452/6 356/486/6 355/484/6
f 332/446/6 337/456/6 338/458/6 352/481/6 324/437/6 349/478/6
f 352/481/6 338/458/6 336/454/6 351/480/6
f 331/444/6 332/446/6 349/478/6 350/479/6
f 343/468/8 328/441/8 329/442/8 330/443/8 327/440/8 346/474/8 345/472/8 344/470/8
f 327/440/8 328/441/8 343/468/8 346/474/8
f 327/440/7 330/443/7 326/439/7 348/477/7 347/476/7 325/438/7
f 324/437/9 329/442/9 328/441/9 323/436/9 350/479/9 349/478/9
f 326/439/10 330/443/10 329/442/10 324/437/10 352/481/10 351/480/10
f 328/441/11 327/440/11 325/438/11 354/483/11 353/482/11 323/436/11
f 346/475/9 340/463/9 333/449/9 334/451/9 335/453/9 345/473/9
f 337/457/7 332/447/7 331/445/7 342/467/7 343/469/7 344/471/7
f 335/453/11 355/485/11 336/455/11 338/459/11 337/457/11 344/471/11 345/473/11
f 343/469/10 342/467/10 341/465/10 339/461/10 340/463/10 346/475/10
o janelas
v -5.500000 0.900000 -0.750000
v -5.500000 1.470080 -0.611466
v -5.500000 1.410000 0.215262
v -5.500000 0.929920 -0.611466
v -5.500000 0.900000 0.750000
v -5.500000 1.470080 0.036726
v -5.500000 0.929920 0.036726
v -5.500000 0.990000 0.215262
v -5.500000 1.500000 -0.750000
v -5.500000 1.410000 0.635262
v -5.500000 1.500000 0.750000
v -5.500000 0.990000 0.635262
v -5.500000 1.297193 0.230875
v -5.500000 1.325000 -0.587370
v -5.500000 1.012500 -0.587370
v -5.500000 1.054210 0.230875
v -5.500000 1.325000 0.012630
v -5.500000 1.297193 0.619649
v -5.500000 1.012500 0.012630
v -5.500000 1.054210 0.619649
v -5.500000 0.950000 0.012630
v -5.500000 1.005613 0.619649
v -5.500000 0.950000 -0.162370
v -5.500000 1.005613 0.506256
v -5.500000 1.005613 0.230875
v -5.500000 0.950000 -0.587370
v -5.500000 1.005613 0.303770
v -5.500000 0.950000 -0.474870
v -5.500000 1.450000 -0.162370
v -5.500000 1.394387 0.506256
v -5.500000 1.394387 0.619649
v -5.500000 1.450000 0.012630
v -5.500000 1.450000 -0.474870
v -5.500000 1.394387 0.303770
v -5.500000 1.450000 -0.587370
v -5.500000 1.394387 0.230875
v -5.500000 1.297193 0.635262
v -5.500000 1.054210 0.635262
v -5.500000 1.054210 0.215262
v -5.500000 1.297193 0.215262
v -5.500000 0.990000 0.506256
v -5.500000 1.325000 0.036726
v -5.500000 0.990000 0.303770
v -5.500000 1.012500 0.036726
v -5.500000 1.012500 -0.611466
v -5.500000 1.410000 0.303770
v -5.500000 1.410000 0.506256
v -5.500000 1.325000 -0.611466
v -5.500000 0.929920 -0.162370
v -5.500000 1.005613 0.619649
v -5.500000 0.929920 -0.474870
v -5.500000 1.005613 0.619649
v -5.500000 1.470080 -0.474870
v -5.500000 0.990000 0.215262
v -5.500000 1.005613 0.230875
v -5.500000 1.470080 -0.162370
v -5.500000 1.005613 0.619649
v -5.500000 0.950000 0.012630
v -5.500000 1.410000 0.635262
v -5.500000 0.950000 0.012630
v -5.500000 0.990000 0.635262
v -5.500000 1.394387 0.619649
v -5.500000 1.410000 0.215262
v -5.500000 1.394387 0.230875
v -5.500000 0.929920 0.036726
v -5.500000 0.950000 0.012630
v -5.500000 1.470080 0.036726
v -5.500000 1.450000 0.012630
v -5.500000 0.929920 -0.611466
v -5.500000 0.950000 -0.587370
v -5.500000 1.470080 -0.611466
v -5.500000 1.450000 -0.587370
v -5.512500 -0.012500 0.737500
v -5.512500 1.600000 0.737500
v -5.487500 -0.012500 0.737500
v -5.487500 1.600000 0.737500
v -5.512500 -0.012500 0.762500
v -5.512500 1.600000 0.762500
v -5.487500 -0.012500 0.762500
v -5.487500 1.600000 0.762500
v -5.512500 -0.012500 -0.762500
v -5.512500 1.600000 -0.762500
v -5.487500 -0.012500 -0.762500
v -5.487500 1.600000 -0.762500
v -5.512500 -0.012500 -0.737500
v -5.512500 1.600000 -0.737500
v -5.487500 -0.012500 -0.737500
v -5.487500 1.600000 -0.737500
v -5.500000 1.410000 0.215262
v -5.500000 0.990000 0.215262
v -5.500000 1.410000 0.635262
v -5.500000 0.990000 0.635262
v -5.510000 1.410000 0.635262
v -5.510000 1.410000 0.215262
v -5.510000 0.990000 0.215262
v -5.510000 0.990000 0.635262
v -5.500000 1.297194 0.230875
v -5.500000 1.054210 0.230875
v -5.500000 1.297194 0.619649
v -5.500000 1.054210 0.619649
v -5.500000 1.005613 0.619649
v -5.500000 1.005613 0.506256
v -5.500000 1.005613 0.230875
v -5.500000 1.005613 0.303770
v -5.500000 1.394387 0.506256
v -5.500000 1.394387 0.619649
v -5.500000 1.394387 0.303770
v -5.500000 1.394387 0.230875
v -5.510000 1.394387 0.230875
v -5.510000 1.005613 0.230875
v -5.510000 1.005613 0.619649
v -5.510000 1.394387 0.619649
v -5.500000 1.297194 0.635262
v -5.500000 1.054210 0.635262
v -5.500000 1.054210 0.215262
v -5.500000 1.297194 0.215262
v -5.500000 0.990000 0.506256
v -5.500000 0.990000 0.303770
v -5.500000 1.410000 0.303770
v -5.500000 1.410000 0.506256
v -5.500000 1.005613 0.619649
v -5.500000 1.005613 0.619649
v -5.500000 1.470080 -0.611466
v -5.500000 0.929920 -0.611466
v -5.500000 1.470080 0.036726
v -5.500000 0.929920 0.036726
v -5.510000 1.470080 0.036726
v -5.509999 1.470080 -0.611466
v -5.509999 0.929920 -0.611466
v -5.510000 0.929920 0.036726
v -5.500000 1.325000 -0.587370
v -5.500000 1.012500 -0.587370
v -5.500000 1.325000 0.012630
v -5.500000 1.012500 0.012630
v -5.500000 0.950000 0.012630
v -5.500000 0.950000 -0.162370
v -5.500000 0.950000 -0.587370
v -5.500000 0.950000 -0.474870
v -5.500000 1.450000 -0.162370
v -5.500000 1.450000 0.012630
v -5.500000 1.450000 -0.474870
v -5.500000 1.450000 -0.587370
v -5.509999 1.450000 -0.587370
v -5.509999 0.950000 -0.587370
v -5.510000 0.950000 0.012630
v -5.510000 1.450000 0.012630
v -5.500000 1.325000 0.036726
v -5.500000 1.012500 0.036726
v -5.500000 1.012500 -0.611466
v -5.500000 1.325000 -0.611466
v -5.500000 0.929920 -0.162370
v -5.500000 0.929920 -0.474870
v -5.500000 1.470080 -0.474870
v -5.500000 1.470080 -0.162370
v -5.500000 0.950000 0.012630
v -5.500000 0.950000 0.012630
vn -1.0000 -0.0000 -0.0000
vn -0.0000 -0.0000 -1.0000
vn -0.0000 -0.0000 1.0000
vn -0.0000 1.0000 -0.0000
vn -0.0000 -1.0000 -0.0000
vn 0.0073 -1.0000 -0.0000
vn -0.0107 -0.9999 -0.0000
vn -0.0038 -1.0000 -0.0000
vn 1.0000 -0.0000 -0.0000
vt 0.000000 0.000000
vt 0.847120 0.000000
vt 0.000000 0.000000
vt 0.847120 0.000000
vt 0.000000 0.000000
vt 1.000000 0.000000
vt 0.847120 0.000000
vt 1.000000 0.692844
vt 1.000000 0.000000
vt 0.000000 1.000000
vt 0.000000 0.000000
vt 1.000000 1.000000
vt 1.000000 0.692844
vt 1.000000 0.000000
vt 0.847120 0.000000
vt 1.000000 0.692844
vt 0.000000 1.000000
vt 0.000000 1.000000
vt 0.000000 0.000000
vt 1.000000 1.000000
vt 1.000000 1.000000
vt 1.000000 0.692844
vt 0.268587 0.037174
vt 1.000000 0.000000
vt 0.268587 0.037174
vt 1.000000 0.000000
vt 0.847120 0.037174
vt 1.000000 0.000000
vt 0.847120 0.037174
vt 1.000000 0.000000
vt 0.268587 0.962826
vt 0.000000 1.000000
vt 0.268587 0.962826
vt 0.000000 1.000000
vt 0.847120 0.962826
vt 0.000000 1.000000
vt 0.847120 0.962826
vt 0.000000 1.000000
vt 0.962826 0.962826
vt 0.000000 1.000000
vt 1.000000 1.000000
vt 0.962826 0.962826
vt 0.000000 1.000000
vt 1.000000 1.000000
vt 0.962826 0.692844
vt 1.000000 1.000000
vt 0.962826 0.692844
vt 1.000000 1.000000
vt 0.962826 0.037174
vt 1.000000 0.000000
vt 1.000000 1.000000
vt 0.962826 0.037174
vt 1.000000 0.000000
vt 1.000000 1.000000
vt 0.962826 0.210734
vt 1.000000 1.000000
vt 0.962826 0.210734
vt 1.000000 1.000000
vt 0.037174 0.692844
vt 0.000000 0.000000
vt 0.037174 0.692844
vt 0.000000 0.000000
vt 0.037174 0.962826
vt 0.000000 1.000000
vt 0.000000 0.000000
vt 0.037174 0.962826
vt 0.000000 1.000000
vt 0.000000 0.000000
vt 0.037174 0.210734
vt 0.000000 0.000000
vt 0.037174 0.210734
vt 0.000000 0.000000
vt 0.037174 0.037174
vt 1.000000 0.000000
vt 0.000000 0.000000
vt 0.037174 0.037174
vt 1.000000 0.000000
vt 0.000000 0.000000
vt 0.268587 1.000000
vt 0.000000 1.000000
vt 0.847120 1.000000
vt 1.000000 1.000000
vt 0.847120 0.000000
vt 0.268587 0.000000
vt 0.847120 0.000000
vt 1.000000 0.692844
vt 0.268587 1.000000
vt 1.000000 1.000000
vt 1.000000 0.210734
vt 1.000000 0.692844
vt 0.847120 1.000000
vt 1.000000 1.000000
vt 0.847120 0.000000
vt 0.000000 0.210734
vt 0.000000 0.000000
vt 0.000000 0.692844
vt 0.000000 0.000000
vt 0.268587 0.000000
vt 0.847120 0.000000
vt 1.000000 0.692844
vt 0.962826 0.962826
vt 1.000000 1.000000
vt 1.000000 0.210734
vt 1.000000 0.692844
vt 0.962826 0.962826
vt 0.000000 0.210734
vt 0.000000 0.000000
vt 0.643508 0.150000
vt 1.000000 0.000000
vt 1.000000 1.000000
vt 1.000000 0.000000
vt 1.000000 1.000000
vt 0.000000 0.692844
vt 0.000000 0.000000
vt 0.000000 1.000000
vt 1.000000 1.000000
vt 0.962826 0.962826
vt 1.000000 1.000000
vt 0.923508 0.850000
vt 0.000000 1.000000
vt 0.000000 0.000000
vt 0.962826 0.962826
vt 0.923508 0.150000
vt 0.000000 1.000000
vt 1.000000 1.000000
vt 0.000000 1.000000
vt 0.000000 0.000000
vt 0.643508 0.850000
vt 1.000000 0.000000
vt 0.000000 0.000000
vt 1.000000 0.000000
vt 0.000000 0.000000
vt 0.524484 0.049867
vt 0.000000 1.000000
vt 1.000000 1.000000
vt 0.000000 1.000000
vt 1.000000 1.000000
vt 0.524484 0.950133
vt 0.000000 1.000000
vt 0.000000 0.000000
vt 0.000000 1.000000
vt 0.000000 0.000000
vt 0.092356 0.049867
vt 1.000000 0.000000
vt 1.000000 1.000000
vt 1.000000 0.000000
vt 1.000000 1.000000
vt 0.092356 0.950133
vt 1.000000 0.000000
vt 0.000000 0.000000
vt 1.000000 0.000000
vt 0.000000 0.000000
vt 0.375000 0.000000
vt 0.375000 1.000000
vt 0.125000 0.750000
vt 0.625000 0.000000
vt 0.625000 1.000000
vt 0.875000 0.750000
vt 0.375000 0.250000
vt 0.125000 0.500000
vt 0.625000 0.250000
vt 0.875000 0.500000
vt 0.375000 0.750000
vt 0.625000 0.750000
vt 0.375000 0.500000
vt 0.625000 0.500000
vt 0.375000 0.000000
vt 0.375000 1.000000
vt 0.125000 0.750000
vt 0.625000 0.000000
vt 0.625000 1.000000
vt 0.875000 0.750000
vt 0.375000 0.250000
vt 0.125000 0.500000
vt 0.625000 0.250000
vt 0.875000 0.500000
vt 0.375000 0.750000
vt 0.625000 0.750000
vt 0.375000 0.500000
vt 0.625000 0.500000
vt 0.000000 0.000000
vt 1.000000 0.000000
vt 0.000000 1.000000
vt 1.000000 1.000000
vt 0.000000 1.000000
vt 0.000000 0.000000
vt 1.000000 0.000000
vt 1.000000 1.000000
vt 0.268587 0.037174
vt 0.250000 0.000000
vt 0.847120 0.037174
vt 0.875000 0.000000
vt 0.268587 0.962826
vt 0.250000 1.000000
vt 0.847120 0.962826
vt 0.875000 1.000000
vt 0.962826 0.962826
vt 1.000000 1.000000
vt 0.962826 0.692844
vt 1.000000 0.708333
vt 0.962826 0.037174
vt 1.000000 0.000000
vt 0.962826 0.210734
vt 1.000000 0.187500
vt 0.037174 0.692844
vt 0.000000 0.708333
vt 0.037174 0.962826
vt 0.000000 1.000000
vt 0.037174 0.210734
vt 0.000000 0.187500
vt 0.037174 0.037174
vt 0.000000 0.000000
vt 0.037174 0.037174
vt 0.000000 0.000000
vt 0.962826 0.037174
vt 1.000000 0.000000
vt 0.962826 0.962826
vt 1.000000 1.000000
vt 0.037174 0.962826
vt 0.000000 1.000000
vt 0.268587 1.000000
vt 0.847120 1.000000
vt 0.847120 0.000000
vt 0.268587 0.000000
vt 1.000000 0.692844
vt 1.000000 0.210734
vt 0.000000 0.210734
vt 0.000000 0.692844
vt 0.962826 0.962826
vt 1.000000 1.000000
vt 0.962826 0.962826
vt 0.000000 0.000000
vt 1.000000 0.000000
vt 0.000000 1.000000
vt 1.000000 1.000000
vt 0.000000 1.000000
vt 0.000000 0.000000
vt 1.000000 0.000000
vt 1.000000 1.000000
vt 0.268587 0.037174
vt 0.250000 0.000000
vt 0.847120 0.037174
vt 0.875000 0.000000
vt 0.268587 0.962826
vt 0.250000 1.000000
vt 0.847120 0.962826
vt 0.875000 1.000000
vt 0.962826 0.962826
vt 1.000000 1.000000
vt 0.962826 0.692844
vt 1.000000 0.708333
vt 0.962826 0.037174
vt 1.000000 0.000000
vt 0.962826 0.210734
vt 1.000000 0.187500
vt 0.037174 0.692844
vt 0.000000 0.708333
vt 0.037174 0.962826
vt 0.000000 1.000000
vt 0.037174 0.210734
vt 0.000000 0.187500
vt 0.037174 0.037174
vt 0.000000 0.000000
vt 0.037174 0.037174
vt 0.000000 0.000000
vt 0.962826 0.037174
vt 1.000000 0.000000
vt 0.962826 0.962826
vt 1.000000 1.000000
vt 0.037174 0.962826
vt 0.000000 1.000000
vt 0.268587 1.000000
vt 0.847120 1.000000
vt 0.847120 0.000000
vt 0.268587 0.000000
vt 1.000000 0.692844
vt 1.000000 0.210734
vt 0.000000 0.210734
vt 0.000000 0.692844
vt 0.962826 0.962826
vt 1.000000 1.000000
vt 0.962826 0.962826
s 0
usemtl kraft
f 425/629/36 357/487/36 361/495/36 417/609/36 410/594/36 419/614/36 415/605/36 367/506/36 365/503/36 427/634/36 423/624/36 421/619/36
f 365/503/36 357/487/36 425/629/36 427/634/36
f 417/609/36 361/495/36 367/506/36 415/605/36
f 387/549/36 374/519/36 393/565/36 366/504/36 403/582/36 386/547/36
f 359/491/36 396/570/36 369/509/36 392/562/36 390/557/36 402/580/36
f 402/580/36 390/557/36 386/547/36 403/582/36
f 374/519/36 376/523/36 394/567/36 393/565/36
f 406/587/36 380/533/36 397/572/36 368/507/36 394/567/36 376/523/36 378/528/36 408/591/36
f 406/587/36 408/591/36 378/528/36
f 372/515/36 395/569/36 364/500/36 399/575/36 383/541/36 381/535/36
f 399/575/36 397/572/36 380/533/36 383/541/36
f 395/569/36 372/515/36 369/509/36 396/570/36
f 393/566/37 394/568/37 368/507/37 417/610/37 415/606/37 366/504/37
f 410/595/38 364/501/38 395/569/38 396/571/38 359/490/38 419/615/38
f 397/572/39 399/576/39 364/502/39 410/596/39 417/611/39 368/508/39
f 419/616/40 359/491/40 402/581/40 403/583/40 366/505/40 415/607/40
f 413/601/38 378/529/38 376/524/38 374/520/38 387/550/38 418/612/38
f 369/510/37 372/516/37 381/536/37 411/597/37 420/617/37 392/563/37
f 411/598/41 381/537/41 383/542/41 380/534/41 406/588/41 378/530/41 413/602/41
f 386/548/39 390/558/39 392/564/39 420/618/39 418/613/39 387/551/39
f 388/552/36 373/517/36 398/573/36 362/496/36 412/599/36 385/545/36
f 358/489/36 404/584/36 370/511/36 391/559/36 389/555/36 409/592/36
f 409/592/36 389/555/36 385/545/36 412/599/36
f 373/517/36 375/521/36 400/577/36 398/573/36
f 379/531/36 405/586/36 363/498/36 400/577/36 375/521/36 377/525/36 416/608/36 414/603/36
f 414/603/36 416/608/36 377/525/36
f 401/579/36 360/492/36 407/589/36 384/543/36 382/538/36 371/513/36
f 407/589/36 405/586/36 379/531/36 384/543/36
f 401/579/36 371/513/36 370/511/36 404/584/36
f 362/496/37 398/574/37 400/578/37 363/498/37 421/620/37 423/625/37
f 425/630/38 360/493/38 401/579/38 404/585/38 358/488/38 427/635/38
f 363/499/39 405/586/39 407/590/39 360/494/39 425/631/39 421/621/39
f 427/636/42 358/489/42 409/593/42 412/600/42 362/497/42 423/626/42
f 422/622/38 377/526/38 375/522/38 373/518/38 388/553/38 424/627/38
f 391/560/37 370/512/37 371/514/37 382/539/37 426/632/37 428/637/37
f 426/633/43 382/540/43 384/544/43 379/532/43 414/604/43 377/527/43 422/623/43
f 388/554/39 385/546/39 389/556/39 391/561/39 428/638/39 424/628/39
usemtl marrom
f 429/639/37 430/642/37 432/647/37 431/645/37
f 431/645/44 432/647/44 436/652/44 435/651/44
f 435/651/38 436/652/38 434/650/38 433/649/38
f 433/649/36 434/650/36 430/643/36 429/640/36
f 431/646/40 435/651/40 433/649/40 429/641/40
f 436/652/39 432/648/39 430/644/39 434/650/39
f 437/653/37 438/656/37 440/661/37 439/659/37
f 439/659/44 440/661/44 444/666/44 443/665/44
f 443/665/38 444/666/38 442/664/38 441/663/38
f 441/663/36 442/664/36 438/657/36 437/654/36
f 439/660/40 443/665/40 441/663/40 437/655/40
f 444/666/39 440/662/39 438/658/39 442/664/39
usemtl red
f 455/679/44 462/693/44 461/691/44 476/714/44 447/669/44 469/707/44
f 475/713/44 463/695/44 464/697/44 453/675/44 472/710/44 445/667/44
f 476/714/44 461/691/44 463/695/44 475/713/44
f 470/708/44 456/681/44 455/679/44 469/707/44
f 457/683/44 456/681/44 470/708/44 448/670/44 473/711/44 458/685/44 477/715/44 478/717/44
f 457/683/44 478/717/44 477/715/44
f 454/677/44 459/687/44 460/689/44 474/712/44 446/668/44 471/709/44
f 474/712/44 460/689/44 458/685/44 473/711/44
f 453/675/44 454/677/44 471/709/44 472/710/44
f 465/699/36 450/672/36 451/673/36 452/674/36 449/671/36 468/705/36 467/703/36 466/701/36
f 449/671/36 450/672/36 465/699/36 468/705/36
f 449/671/38 452/674/38 448/670/38 470/708/38 469/707/38 447/669/38
f 446/668/37 451/673/37 450/672/37 445/667/37 472/710/37 471/709/37
f 448/670/40 452/674/40 451/673/40 446/668/40 474/712/40 473/711/40
f 450/672/39 449/671/39 447/669/39 476/714/39 475/713/39 445/667/39
f 468/706/37 462/694/37 455/680/37 456/682/37 457/684/37 467/704/37
f 459/688/38 454/678/38 453/676/38 464/698/38 465/700/38 466/702/38
f 457/684/39 477/716/39 458/686/39 460/690/39 459/688/39 466/702/39 467/704/39
f 465/700/40 464/698/40 463/696/40 461/692/40 462/694/40 468/706/40
usemtl blue
f 489/730/44 496/744/44 495/742/44 510/765/44 481/720/44 503/758/44
f 509/764/44 497/746/44 498/748/44 487/726/44 506/761/44 479/718/44
f 510/765/44 495/742/44 497/746/44 509/764/44
f 504/759/44 490/732/44 489/730/44 503/758/44
f 491/734/44 490/732/44 504/759/44 482/721/44 507/762/44 492/736/44 511/766/44 512/768/44
f 491/734/44 512/768/44 511/766/44
f 488/728/44 493/738/44 494/740/44 508/763/44 480/719/44 505/760/44
f 508/763/44 494/740/44 492/736/44 507/762/44
f 487/726/44 488/728/44 505/760/44 506/761/44
f 499/750/36 484/723/36 485/724/36 486/725/36 483/722/36 502/756/36 501/754/36 500/752/36
f 483/722/36 484/723/36 499/750/36 502/756/36
f 483/722/38 486/725/38 482/721/38 504/759/38 503/758/38 481/720/38
f 480/719/37 485/724/37 484/723/37 479/718/37 506/761/37 505/760/37
f 482/721/40 486/725/40 485/724/40 480/719/40 508/763/40 507/762/40
f 484/723/39 483/722/39 481/720/39 510/765/39 509/764/39 479/718/39
f 502/757/37 496/745/37 489/731/37 490/733/37 491/735/37 501/755/37
f 493/739/38 488/729/38 487/727/38 498/749/38 499/751/38 500/753/38
f 491/735/39 511/767/39 492/737/39 494/741/39 493/739/39 500/753/39 501/755/39
f 499/751/40 498/749/40 497/747/40 495/743/40 496/745/40 502/757/40
o barras
v -4.512110 -0.006250 0.737507
v -4.512110 2.006250 0.737507
v -4.487110 -0.006250 0.737494
v -4.487110 2.006250 0.737494
v -4.512096 -0.006250 0.762507
v -4.512096 2.006250 0.762507
v -4.487097 -0.006250 0.762494
v -4.487097 2.006250 0.762494
v -4.512903 -0.006250 -0.762493
v -4.512903 2.006250 -0.762493
v -4.487904 -0.006250 -0.762506
v -4.487904 2.006250 -0.762506
v -4.512890 -0.006250 -0.737493
v -4.512890 2.006250 -0.737493
v -4.487890 -0.006250 -0.737506
v -4.487890 2.006250 -0.737506
vn -0.0005 -0.0000 -1.0000
vn 1.0000 -0.0000 -0.0005
vn 0.0005 -0.0000 1.0000
vn -1.0000 -0.0000 0.0005
vn -0.0000 -1.0000 -0.0000
vn -0.0000 1.0000 -0.0000
vt 0.375000 0.000000
vt 0.375000 1.000000
vt 0.125000 0.750000
vt 0.625000 0.000000
vt 0.625000 1.000000
vt 0.875000 0.750000
vt 0.375000 0.250000
vt 0.125000 0.500000
vt 0.625000 0.250000
vt 0.875000 0.500000
vt 0.375000 0.750000
vt 0.625000 0.750000
vt 0.375000 0.500000
vt 0.625000 0.500000
vt 0.375000 0.000000
vt 0.375000 1.000000
vt 0.125000 0.750000
vt 0.625000 0.000000
vt 0.625000 1.000000
vt 0.875000 0.750000
vt 0.375000 0.250000
vt 0.125000 0.500000
vt 0.625000 0.250000
vt 0.875000 0.500000
vt 0.375000 0.750000
vt 0.625000 0.750000
vt 0.375000 0.500000
vt 0.625000 0.500000
s 0
usemtl marrom
f 513/769/45 514/772/45 516/777/45 515/775/45
f 515/775/46 516/777/46 520/782/46 519/781/46
f 519/781/47 520/782/47 518/780/47 517/779/47
f 517/779/48 518/780/48 514/773/48 513/770/48
f 515/776/49 519/781/49 517/779/49 513/771/49
f 520/782/50 516/778/50 514/774/50 518/780/50
f 521/783/45 522/786/45 524/791/45 523/789/45
f 523/789/46 524/791/46 528/796/46 527/795/46
f 527/795/47 528/796/47 526/794/47 525/793/47
f 525/793/48 526/794/48 522/787/48 521/784/48
f 523/790/49 527/795/49 525/793/49 521/785/49
f 528/796/50 524/792/50 522/788/50 526/794/50
o janelas.001
v 0.250000 0.900000 -0.750000
v 0.250001 1.470080 -0.611466
v 0.250000 1.410000 0.215262
v 0.250001 0.929920 -0.611466
v 0.250000 0.900000 0.750000
v 0.250000 1.470080 0.036726
v 0.250001 0.929920 0.036726
v 0.250000 0.990000 0.215262
v 0.250000 1.500000 -0.750000
v 0.250000 1.410000 0.635262
v 0.250000 1.500000 0.750000
v 0.250000 0.990000 0.635262
v 0.250000 1.297193 0.230875
v 0.250001 1.325000 -0.587370
v 0.250001 1.012500 -0.587370
v 0.250000 1.054210 0.230875
v 0.250000 1.325000 0.012630
v 0.250000 1.297193 0.619649
v 0.250001 1.012500 0.012630
v 0.250000 1.054210 0.619649
v 0.250001 0.950000 0.012630
v 0.250000 1.005613 0.619649
v 0.250001 0.950000 -0.162370
v 0.250000 1.005613 0.506256
v 0.250000 1.005613 0.230875
v 0.250001 0.950000 -0.587370
v 0.250000 1.005613 0.303770
v 0.250001 0.950000 -0.474870
v 0.250000 1.450000 -0.162370
v 0.250000 1.394387 0.506256
v 0.250000 1.394387 0.619649
v 0.250000 1.450000 0.012630
v 0.250001 1.450000 -0.474870
v 0.250000 1.394387 0.303770
v 0.250001 1.450000 -0.587370
v 0.250000 1.394387 0.230875
v 0.250000 1.297193 0.635262
v 0.250000 1.054210 0.635262
v 0.250000 1.054210 0.215262
v 0.250000 1.297193 0.215262
v 0.250000 0.990000 0.506256
v 0.250000 1.325000 0.036726
v 0.250000 0.990000 0.303770
v 0.250000 1.012500 0.036726
v 0.250001 1.012500 -0.611466
v 0.250000 1.410000 0.303770
v 0.250000 1.410000 0.506256
v 0.250001 1.325000 -0.611466
v 0.250001 0.929920 -0.162370
v 0.250000 1.005613 0.619649
v 0.250001 0.929920 -0.474870
v 0.250000 1.005613 0.619649
v 0.250001 1.470080 -0.474870
v 0.250000 0.990000 0.215262
v 0.250000 1.005613 0.230875
v 0.250000 1.470080 -0.162370
v 0.250000 1.005613 0.619649
v 0.250001 0.950000 0.012630
v 0.250000 1.410000 0.635262
v 0.250001 0.950000 0.012630
v 0.250000 0.990000 0.635262
v 0.250000 1.394387 0.619649
v 0.250000 1.410000 0.215262
v 0.250000 1.394387 0.230875
v 0.250000 0.929920 0.036726
v 0.250000 0.950000 0.012630
v 0.250000 1.470080 0.036726
v 0.250000 1.450000 0.012630
v 0.250000 0.929920 -0.611466
v 0.250000 0.950000 -0.587370
v 0.250000 1.470080 -0.611466
v 0.250000 1.450000 -0.587370
v 0.237500 -0.012500 0.737500
v 0.237500 1.600000 0.737500
v 0.262500 -0.012500 0.737500
v 0.262500 1.600000 0.737500
v 0.237500 -0.012500 0.762500
v 0.237500 1.600000 0.762500
v 0.262500 -0.012500 0.762500
v 0.262500 1.600000 0.762500
v 0.237500 -0.012500 -0.762500
v 0.237500 1.600000 -0.762500
v 0.262500 -0.012500 -0.762500
v 0.262500 1.600000 -0.762500
v 0.237500 -0.012500 -0.737500
v 0.237500 1.600000 -0.737500
v 0.262500 -0.012500 -0.737500
v 0.262500 1.600000 -0.737500
v 0.250000 1.410000 0.215262
v 0.250000 0.990000 0.215262
v 0.250000 1.410000 0.635262
v 0.250000 0.990000 0.635262
v 0.240000 1.410000 0.635262
v 0.240000 1.410000 0.215262
v 0.240000 0.990000 0.215262
v 0.240000 0.990000 0.635262
v 0.250000 1.297194 0.230875
v 0.250000 1.054210 0.230875
v 0.250000 1.297194 0.619649
v 0.250000 1.054210 0.619649
v 0.250000 1.005613 0.619649
v 0.250000 1.005613 0.506256
v 0.250000 1.005613 0.230875
v 0.250000 1.005613 0.303770
v 0.250000 1.394387 0.506256
v 0.250000 1.394387 0.619649
v 0.250000 1.394387 0.303770
v 0.250000 1.394387 0.230875
v 0.240000 1.394387 0.230875
v 0.240000 1.005613 0.230875
v 0.240000 1.005613 0.619649
v 0.240000 1.394387 0.619649
v 0.250000 1.297194 0.635262
v 0.250000 1.054210 0.635262
v 0.250000 1.054210 0.215262
v 0.250000 1.297194 0.215262
v 0.250000 0.990000 0.506256
v 0.250000 0.990000 0.303770
v 0.250000 1.410000 0.303770
v 0.250000 1.410000 0.506256
v 0.250000 1.005613 0.619649
v 0.250000 1.005613 0.619649
v 0.250001 1.470080 -0.611466
v 0.250001 0.929920 -0.611466
v 0.250000 1.470080 0.036726
v 0.250000 0.929920 0.036726
v 0.240000 1.470080 0.036726
v 0.240001 1.470080 -0.611466
v 0.240001 0.929920 -0.611466
v 0.240000 0.929920 0.036726
v 0.250001 1.325000 -0.587370
v 0.250001 1.012500 -0.587370
v 0.250000 1.325000 0.012630
v 0.250000 1.012500 0.012630
v 0.250000 0.950000 0.012630
v 0.250000 0.950000 -0.162370
v 0.250001 0.950000 -0.587370
v 0.250001 0.950000 -0.474870
v 0.250000 1.450000 -0.162370
v 0.250000 1.450000 0.012630
v 0.250001 1.450000 -0.474870
v 0.250001 1.450000 -0.587370
v 0.240001 1.450000 -0.587370
v 0.240001 0.950000 -0.587370
v 0.240000 0.950000 0.012630
v 0.240000 1.450000 0.012630
v 0.250000 1.325000 0.036726
v 0.250000 1.012500 0.036726
v 0.250001 1.012500 -0.611466
v 0.250001 1.325000 -0.611466
v 0.250000 0.929920 -0.162370
v 0.250001 0.929920 -0.474870
v 0.250001 1.470080 -0.474870
v 0.250000 1.470080 -0.162370
v 0.250000 0.950000 0.012630
v 0.250000 0.950000 0.012630
vn -1.0000 -0.0000 -0.0000
vn -0.0000 -0.0000 -1.0000
vn -0.0000 -0.0000 1.0000
vn -0.0000 1.0000 -0.0000
vn -0.0000 -1.0000 -0.0000
vn 0.0073 -1.0000 -0.0000
vn -0.0107 -0.9999 -0.0000
vn -0.0038 -1.0000 -0.0000
vn 1.0000 -0.0000 -0.0000
vt 0.000000 0.000000
vt 0.847120 0.000000
vt 0.000000 0.000000
vt 0.847120 0.000000
vt 0.000000 0.000000
vt 1.000000 0.000000
vt 0.847120 0.000000
vt 1.000000 0.692844
vt 1.000000 0.000000
vt 0.000000 1.000000
vt 0.000000 0.000000
vt 1.000000 1.000000
vt 1.000000 0.692844
vt 1.000000 0.000000
vt 0.847120 0.000000
vt 1.000000 0.692844
vt 0.000000 1.000000
vt 0.000000 1.000000
vt 0.000000 0.000000
vt 1.000000 1.000000
vt 1.000000 1.000000
vt 1.000000 0.692844
vt 0.268587 0.037174
vt 1.000000 0.000000
vt 0.268587 0.037174
vt 1.000000 0.000000
vt 0.847120 0.037174
vt 1.000000 0.000000
vt 0.847120 0.037174
vt 1.000000 0.000000
vt 0.268587 0.962826
vt 0.000000 1.000000
vt 0.268587 0.962826
vt 0.000000 1.000000
vt 0.847120 0.962826
vt 0.000000 1.000000
vt 0.847120 0.962826
vt 0.000000 1.000000
vt 0.962826 0.962826
vt 0.000000 1.000000
vt 1.000000 1.000000
vt 0.962826 0.962826
vt 0.000000 1.000000
vt 1.000000 1.000000
vt 0.962826 0.692844
vt 1.000000 1.000000
vt 0.962826 0.692844
vt 1.000000 1.000000
vt 0.962826 0.037174
vt 1.000000 0.000000
vt 1.000000 1.000000
vt 0.962826 0.037174
vt 1.000000 0.000000
vt 1.000000 1.000000
vt 0.962826 0.210734
vt 1.000000 1.000000
vt 0.962826 0.210734
vt 1.000000 1.000000
vt 0.037174 0.692844
vt 0.000000 0.000000
vt 0.037174 0.692844
vt 0.000000 0.000000
vt 0.037174 0.962826
vt 0.000000 1.000000
vt 0.000000 0.000000
vt 0.037174 0.962826
vt 0.000000 1.000000
vt 0.000000 0.000000
vt 0.037174 0.210734
vt 0.000000 0.000000
vt 0.037174 0.210734
vt 0.000000 0.000000
vt 0.037174 0.037174
vt 1.000000 0.000000
vt 0.000000 0.000000
vt 0.037174 0.037174
vt 1.000000 0.000000
vt 0.000000 0.000000
vt 0.268587 1.000000
vt 0.000000 1.000000
vt 0.847120 1.000000
vt 1.000000 1.000000
vt 0.847120 0.000000
vt 0.268587 0.000000
vt 0.847120 0.000000
vt 1.000000 0.692844
vt 0.268587 1.000000
vt 1.000000 1.000000
vt 1.000000 0.210734
vt 1.000000 0.692844
vt 0.847120 1.000000
vt 1.000000 1.000000
vt 0.847120 0.000000
vt 0.000000 0.210734
vt 0.000000 0.000000
vt 0.000000 0.692844
vt 0.000000 0.000000
vt 0.268587 0.000000
vt 0.847120 0.000000
vt 1.000000 0.692844
vt 0.962826 0.962826
vt 1.000000 1.000000
vt 1.000000 0.210734
vt 1.000000 0.692844
vt 0.962826 0.962826
vt 0.000000 0.210734
vt 0.000000 0.000000
vt 0.643508 0.150000
vt 1.000000 0.000000
vt 1.000000 1.000000
vt 1.000000 0.000000
vt 1.000000 1.000000
vt 0.000000 0.692844
vt 0.000000 0.000000
vt 0.000000 1.000000
vt 1.000000 1.000000
vt 0.962826 0.962826
vt 1.000000 1.000000
vt 0.923508 0.850000
vt 0.000000 1.000000
vt 0.000000 0.000000
vt 0.962826 0.962826
vt 0.923508 0.150000
vt 0.000000 1.000000
vt 1.000000 1.000000
vt 0.000000 1.000000
vt 0.000000 0.000000
vt 0.643508 0.850000
vt 1.000000 0.000000
vt 0.000000 0.000000
vt 1.000000 0.000000
vt 0.000000 0.000000
vt 0.524484 0.049867
vt 0.000000 1.000000
vt 1.000000 1.000000
vt 0.000000 1.000000
vt 1.000000 1.000000
vt 0.524484 0.950133
vt 0.000000 1.000000
vt 0.000000 0.000000
vt 0.000000 1.000000
vt 0.000000 0.000000
vt 0.092356 0.049867
vt 1.000000 0.000000
vt 1.000000 1.000000
vt 1.000000 0.000000
vt 1.000000 1.000000
vt 0.092356 0.950133
vt 1.000000 0.000000
vt 0.000000 0.000000
vt 1.000000 0.000000
vt 0.000000 0.000000
vt 0.375000 0.000000
vt 0.375000 1.000000
vt 0.125000 0.750000
vt 0.625000 0.000000
vt 0.625000 1.000000
vt 0.875000 0.750000
vt 0.375000 0.250000
vt 0.125000 0.500000
vt 0.625000 0.250000
vt 0.875000 0.500000
vt 0.375000 0.750000
vt 0.625000 0.750000
vt 0.375000 0.500000
vt 0.625000 0.500000
vt 0.375000 0.000000
vt 0.375000 1.000000
vt 0.125000 0.750000
vt 0.625000 0.000000
vt 0.625000 1.000000
vt 0.875000 0.750000
vt 0.375000 0.250000
vt 0.125000 0.500000
vt 0.625000 0.250000
vt 0.875000 0.500000
vt 0.375000 0.750000
vt 0.625000 0.750000
vt 0.375000 0.500000
vt 0.625000 0.500000
vt 0.000000 0.000000
vt 1.000000 0.000000
vt 0.000000 1.000000
vt 1.000000 1.000000
vt 0.000000 1.000000
vt 0.000000 0.000000
vt 1.000000 0.000000
vt 1.000000 1.000000
vt 0.268587 0.037174
vt 0.250000 0.000000
vt 0.847120 0.037174
vt 0.875000 0.000000
vt 0.268587 0.962826
vt 0.250000 1.000000
vt 0.847120 0.962826
vt 0.875000 1.000000
vt 0.962826 0.962826
vt 1.000000 1.000000
vt 0.962826 0.692844
vt 1.000000 0.708333
vt 0.962826 0.037174
vt 1.000000 0.000000
vt 0.962826 0.210734
vt 1.000000 0.187500
vt 0.037174 0.692844
vt 0.000000 0.708333
vt 0.037174 0.962826
vt 0.000000 1.000000
vt 0.037174 0.210734
vt 0.000000 0.187500
vt 0.037174 0.037174
vt 0.000000 0.000000
vt 0.037174 0.037174
vt 0.000000 0.000000
vt 0.962826 0.037174
vt 1.000000 0.000000
vt 0.962826 0.962826
vt 1.000000 1.000000
vt 0.037174 0.962826
vt 0.000000 1.000000
vt 0.268587 1.000000
vt 0.847120 1.000000
vt 0.847120 0.000000
vt 0.268587 0.000000
vt 1.000000 0.692844
vt 1.000000 0.210734
vt 0.000000 0.210734
vt 0.000000 0.692844
vt 0.962826 0.962826
vt 1.000000 1.000000
vt 0.962826 0.962826
vt 0.000000 0.000000
vt 1.000000 0.000000
vt 0.000000 1.000000
vt 1.000000 1.000000
vt 0.000000 1.000000
vt 0.000000 0.000000
vt 1.000000 0.000000
vt 1.000000 1.000000
vt 0.268587 0.037174
vt 0.250000 0.000000
vt 0.847120 0.037174
vt 0.875000 0.000000
vt 0.268587 0.962826
vt 0.250000 1.000000
vt 0.847120 0.962826
vt 0.875000 1.000000
vt 0.962826 0.962826
vt 1.000000 1.000000
vt 0.962826 0.692844
vt 1.000000 0.708333
vt 0.962826 0.037174
vt 1.000000 0.000000
vt 0.962826 0.210734
vt 1.000000 0.187500
vt 0.037174 0.692844
vt 0.000000 0.708333
vt 0.037174 0.962826
vt 0.000000 1.000000
vt 0.037174 0.210734
vt 0.000000 0.187500
vt 0.037174 0.037174
vt 0.000000 0.000000
vt 0.037174 0.037174
vt 0.000000 0.000000
vt 0.962826 0.037174
vt 1.000000 0.000000
vt 0.962826 0.962826
vt 1.000000 1.000000
vt 0.037174 0.962826
vt 0.000000 1.000000
vt 0.268587 1.000000
vt 0.847120 1.000000
vt 0.847120 0.000000
vt 0.268587 0.000000
vt 1.000000 0.692844
vt 1.000000 0.210734
vt 0.000000 0.210734
vt 0.000000 0.692844
vt 0.962826 0.962826
vt 1.000000 1.000000
vt 0.962826 0.962826
s 0
usemtl kraft
f 597/939/51 529/797/51 533/805/51 589/919/51 582/904/51 591/924/51 587/915/51 539/816/51 537/813/51 599/944/51 595/934/51 593/929/51
f 537/813/51 529/797/51 597/939/51 599/944/51
f 589/919/51 533/805/51 539/816/51 587/915/51
f 559/859/51 546/829/51 565/875/51 538/814/51 575/892/51 558/857/51
f 531/801/51 568/880/51 541/819/51 564/872/51 562/867/51 574/890/51
f 574/890/51 562/867/51 558/857/51 575/892/51
f 546/829/51 548/833/51 566/877/51 565/875/51
f 578/897/51 552/843/51 569/882/51 540/817/51 566/877/51 548/833/51 550/838/51 580/901/51
f 578/897/51 580/901/51 550/838/51
f 544/825/51 567/879/51 536/810/51 571/885/51 555/851/51 553/845/51
f 571/885/51 569/882/51 552/843/51 555/851/51
f 567/879/51 544/825/51 541/819/51 568/880/51
f 565/876/52 566/878/52 540/817/52 589/920/52 587/916/52 538/814/52
f 582/905/53 536/811/53 567/879/53 568/881/53 531/800/53 591/925/53
f 569/882/54 571/886/54 536/812/54 582/906/54 589/921/54 540/818/54
f 591/926/55 531/801/55 574/891/55 575/893/55 538/815/55 587/917/55
f 585/911/53 550/839/53 548/834/53 546/830/53 559/860/53 590/922/53
f 541/820/52 544/826/52 553/846/52 583/907/52 592/927/52 564/873/52
f 583/908/56 553/847/56 555/852/56 552/844/56 578/898/56 550/840/56 585/912/56
f 558/858/54 562/868/54 564/874/54 592/928/54 590/923/54 559/861/54
f 560/862/51 545/827/51 570/883/51 534/806/51 584/909/51 557/855/51
f 530/799/51 576/894/51 542/821/51 563/869/51 561/865/51 581/902/51
f 581/902/51 561/865/51 557/855/51 584/909/51
f 545/827/51 547/831/51 572/887/51 570/883/51
f 551/841/51 577/896/51 535/808/51 572/887/51 547/831/51 549/835/51 588/918/51 586/913/51
f 586/913/51 588/918/51 549/835/51
f 573/889/51 532/802/51 579/899/51 556/853/51 554/848/51 543/823/51
f 579/899/51 577/896/51 551/841/51 556/853/51
f 573/889/51 543/823/51 542/821/51 576/894/51
f 534/806/52 570/884/52 572/888/52 535/808/52 593/930/52 595/935/52
f 597/940/53 532/803/53 573/889/53 576/895/53 530/798/53 599/945/53
f 535/809/54 577/896/54 579/900/54 532/804/54 597/941/54 593/931/54
f 599/946/57 530/799/57 581/903/57 584/910/57 534/807/57 595/936/57
f 594/932/53 549/836/53 547/832/53 545/828/53 560/863/53 596/937/53
f 563/870/52 542/822/52 543/824/52 554/849/52 598/942/52 600/947/52
f 598/943/58 554/850/58 556/854/58 551/842/58 586/914/58 549/837/58 594/933/58
f 560/864/54 557/856/54 561/866/54 563/871/54 600/948/54 596/938/54
usemtl marrom
f 601/949/52 602/952/52 604/957/52 603/955/52
f 603/955/59 604/957/59 608/962/59 607/961/59
f 607/961/53 608/962/53 606/960/53 605/959/53
f 605/959/51 606/960/51 602/953/51 601/950/51
f 603/956/55 607/961/55 605/959/55 601/951/55
f 608/962/54 604/958/54 602/954/54 606/960/54
f 609/963/52 610/966/52 612/971/52 611/969/52
f 611/969/59 612/971/59 616/976/59 615/975/59
f 615/975/53 616/976/53 614/974/53 613/973/53
f 613/973/51 614/974/51 610/967/51 609/964/51
f 611/970/55 615/975/55 613/973/55 609/965/55
f 616/976/54 612/972/54 610/968/54 614/974/54
usemtl red
f 627/989/59 634/1003/59 633/1001/59 648/1024/59 619/979/59 641/1017/59
f 647/1023/59 635/1005/59 636/1007/59 625/985/59 644/1020/59 617/977/59
f 648/1024/59 633/1001/59 635/1005/59 647/1023/59
f 642/1018/59 628/991/59 627/989/59 641/1017/59
f 629/993/59 628/991/59 642/1018/59 620/980/59 645/1021/59 630/995/59 649/1025/59 650/1027/59
f 629/993/59 650/1027/59 649/1025/59
f 626/987/59 631/997/59 632/999/59 646/1022/59 618/978/59 643/1019/59
f 646/1022/59 632/999/59 630/995/59 645/1021/59
f 625/985/59 626/987/59 643/1019/59 644/1020/59
f 637/1009/51 622/982/51 623/983/51 624/984/51 621/981/51 640/1015/51 639/1013/51 638/1011/51
f 621/981/51 622/982/51 637/1009/51 640/1015/51
f 621/981/53 624/984/53 620/980/53 642/1018/53 641/1017/53 619/979/53
f 618/978/52 623/983/52 622/982/52 617/977/52 644/1020/52 643/1019/52
f 620/980/55 624/984/55 623/983/55 618/978/55 646/1022/55 645/1021/55
f 622/982/54 621/981/54 619/979/54 648/1024/54 647/1023/54 617/977/54
f 640/1016/52 634/1004/52 627/990/52 628/992/52 629/994/52 639/1014/52
f 631/998/53 626/988/53 625/986/53 636/1008/53 637/1010/53 638/1012/53
f 629/994/54 649/1026/54 630/996/54 632/1000/54 631/998/54 638/1012/54 639/1014/54
f 637/1010/55 636/1008/55 635/1006/55 633/1002/55 634/1004/55 640/1016/55
usemtl blue
f 661/1040/59 668/1054/59 667/1052/59 682/1075/59 653/1030/59 675/1068/59
f 681/1074/59 669/1056/59 670/1058/59 659/1036/59 678/1071/59 651/1028/59
f 682/1075/59 667/1052/59 669/1056/59 681/1074/59
f 676/1069/59 662/1042/59 661/1040/59 675/1068/59
f 663/1044/59 662/1042/59 676/1069/59 654/1031/59 679/1072/59 664/1046/59 683/1076/59 684/1078/59
f 663/1044/59 684/1078/59 683/1076/59
f 660/1038/59 665/1048/59 666/1050/59 680/1073/59 652/1029/59 677/1070/59
f 680/1073/59 666/1050/59 664/1046/59 679/1072/59
f 659/1036/59 660/1038/59 677/1070/59 678/1071/59
f 671/1060/51 656/1033/51 657/1034/51 658/1035/51 655/1032/51 674/1066/51 673/1064/51 672/1062/51
f 655/1032/51 656/1033/51 671/1060/51 674/1066/51
f 655/1032/53 658/1035/53 654/1031/53 676/1069/53 675/1068/53 653/1030/53
f 652/1029/52 657/1034/52 656/1033/52 651/1028/52 678/1071/52 677/1070/52
f 654/1031/55 658/1035/55 657/1034/55 652/1029/55 680/1073/55 679/1072/55
f 656/1033/54 655/1032/54 653/1030/54 682/1075/54 681/1074/54 651/1028/54
f 674/1067/52 668/1055/52 661/1041/52 662/1043/52 663/1045/52 673/1065/52
f 665/1049/53 660/1039/53 659/1037/53 670/1059/53 671/1061/53 672/1063/53
f 663/1045/54 683/1077/54 664/1047/54 666/1051/54 665/1049/54 672/1063/54 673/1065/54
f 671/1061/55 670/1059/55 669/1057/55 667/1053/55 668/1055/55 674/1067/55
o barra_vermelha
v -4.512927 1.962500 -0.806243
v -4.512074 1.962500 0.806256
v -4.487926 1.962500 -0.806257
v -4.487073 1.962500 0.806243
v -4.512927 1.937500 -0.806243
v -4.512074 1.937500 0.806256
v -4.487926 1.937500 -0.806257
v -4.487073 1.937500 0.806243
vn -0.0000 1.0000 -0.0000
vn 1.0000 -0.0000 -0.0005
vn -0.0000 -1.0000 -0.0000
vn -1.0000 -0.0000 0.0005
vn -0.0005 -0.0000 -1.0000
vn 0.0005 -0.0000 1.0000
vt 0.375000 0.000000
vt 0.375000 1.000000
vt 0.125000 0.750000
vt 0.625000 0.000000
vt 0.625000 1.000000
vt 0.875000 0.750000
vt 0.375000 0.250000
vt 0.125000 0.500000
vt 0.625000 0.250000
vt 0.875000 0.500000
vt 0.375000 0.750000
vt 0.625000 0.750000
vt 0.375000 0.500000
vt 0.625000 0.500000
s 0
usemtl red
f 685/1079/60 686/1082/60 688/1087/60 687/1085/60
f 687/1085/61 688/1087/61 692/1092/61 691/1091/61
f 691/1091/62 692/1092/62 690/1090/62 689/1089/62
f 689/1089/63 690/1090/63 686/1083/63 685/1080/63
f 687/1086/64 691/1091/64 689/1089/64 685/1081/64
f 692/1092/65 688/1088/65 686/1084/65 690/1090/65
o barras.001
v -3.512110 -0.006250 0.737507
v -3.512110 2.006250 0.737507
v -3.487110 -0.006250 0.737494
v -3.487110 2.006250 0.737494
v -3.512097 -0.006250 0.762507
v -3.512097 2.006250 0.762507
v -3.487097 -0.006250 0.762494
v -3.487097 2.006250 0.762494
v -3.512903 -0.006250 -0.762493
v -3.512903 2.006250 -0.762493
v -3.487903 -0.006250 -0.762506
v -3.487903 2.006250 -0.762506
v -3.512890 -0.006250 -0.737493
v -3.512890 2.006250 -0.737493
v -3.487890 -0.006250 -0.737506
v -3.487890 2.006250 -0.737506
vn -0.0005 -0.0000 -1.0000
vn 1.0000 -0.0000 -0.0005
vn 0.0005 -0.0000 1.0000
vn -1.0000 -0.0000 0.0005
vn -0.0000 -1.0000 -0.0000
vn -0.0000 1.0000 -0.0000
vt 0.375000 0.000000
vt 0.375000 1.000000
vt 0.125000 0.750000
vt 0.625000 0.000000
vt 0.625000 1.000000
vt 0.875000 0.750000
vt 0.375000 0.250000
vt 0.125000 0.500000
vt 0.625000 0.250000
vt 0.875000 0.500000
vt 0.375000 0.750000
vt 0.625000 0.750000
vt 0.375000 0.500000
vt 0.625000 0.500000
vt 0.375000 0.000000
vt 0.375000 1.000000
vt 0.125000 0.750000
vt 0.625000 0.000000
vt 0.625000 1.000000
vt 0.875000 0.750000
vt 0.375000 0.250000
vt 0.125000 0.500000
vt 0.625000 0.250000
vt 0.875000 0.500000
vt 0.375000 0.750000
vt 0.625000 0.750000
vt 0.375000 0.500000
vt 0.625000 0.500000
s 0
usemtl marrom
f 693/1093/66 694/1096/66 696/1101/66 695/1099/66
f 695/1099/67 696/1101/67 700/1106/67 699/1105/67
f 699/1105/68 700/1106/68 698/1104/68 697/1103/68
f 697/1103/69 698/1104/69 694/1097/69 693/1094/69
f 695/1100/70 699/1105/70 697/1103/70 693/1095/70
f 700/1106/71 696/1102/71 694/1098/71 698/1104/71
f 701/1107/66 702/1110/66 704/1115/66 703/1113/66
f 703/1113/67 704/1115/67 708/1120/67 707/1119/67
f 707/1119/68 708/1120/68 706/1118/68 705/1117/68
f 705/1117/69 706/1118/69 702/1111/69 701/1108/69
f 703/1114/70 707/1119/70 705/1117/70 701/1109/70
f 708/1120/71 704/1116/71 702/1112/71 706/1118/71
o barra_vermelha.001
v -2.512927 0.812500 -0.806243
v -2.512074 0.812500 0.806256
v -2.487926 0.812500 -0.806257
v -2.487073 0.812500 0.806243
v -2.512927 0.787500 -0.806243
v -2.512074 0.787500 0.806256
v -2.487926 0.787500 -0.806257
v -2.487073 0.787500 0.806243
vn -0.0000 1.0000 -0.0000
vn 1.0000 -0.0000 -0.0005
vn -0.0000 -1.0000 -0.0000
vn -1.0000 -0.0000 0.0005
vn -0.0005 -0.0000 -1.0000
vn 0.0005 -0.0000 1.0000
vt 0.375000 0.000000
vt 0.375000 1.000000
vt 0.125000 0.750000
vt 0.625000 0.000000
vt 0.625000 1.000000
vt 0.875000 0.750000
vt 0.375000 0.250000
vt 0.125000 0.500000
vt 0.625000 0.250000
vt 0.875000 0.500000
vt 0.375000 0.750000
vt 0.625000 0.750000
vt 0.375000 0.500000
vt 0.625000 0.500000
s 0
usemtl blue
f 709/1121/72 710/1124/72 712/1129/72 711/1127/72
f 711/1127/73 712/1129/73 716/1134/73 715/1133/73
f 715/1133/74 716/1134/74 714/1132/74 713/1131/74
f 713/1131/75 714/1132/75 710/1125/75 709/1122/75
f 711/1128/76 715/1133/76 713/1131/76 709/1123/76
f 716/1134/77 712/1130/77 710/1126/77 714/1132/77
o barras.002
v -2.512110 -0.006250 0.737507
v -2.512110 2.006250 0.737507
v -2.487110 -0.006250 0.737494
v -2.487110 2.006250 0.737494
v -2.512097 -0.006250 0.762507
v -2.512097 2.006250 0.762507
v -2.487097 -0.006250 0.762494
v -2.487097 2.006250 0.762494
v -2.512903 -0.006250 -0.762493
v -2.512903 2.006250 -0.762493
v -2.487903 -0.006250 -0.762506
v -2.487903 2.006250 -0.762506
v -2.512890 -0.006250 -0.737493
v -2.512890 2.006250 -0.737493
v -2.487890 -0.006250 -0.737506
v -2.487890 2.006250 -0.737506
vn -0.0005 -0.0000 -1.0000
vn 1.0000 -0.0000 -0.0005
vn 0.0005 -0.0000 1.0000
vn -1.0000 -0.0000 0.0005
vn -0.0000 -1.0000 -0.0000
vn -0.0000 1.0000 -0.0000
vt 0.375000 0.000000
vt 0.375000 1.000000
vt 0.125000 0.750000
vt 0.625000 0.000000
vt 0.625000 1.000000
vt 0.875000 0.750000
vt 0.375000 0.250000
vt 0.125000 0.500000
vt 0.625000 0.250000
vt 0.875000 0.500000
vt 0.375000 0.750000
vt 0.625000 0.750000
vt 0.375000 0.500000
vt 0.625000 0.500000
vt 0.375000 0.000000
vt 0.375000 1.000000
vt 0.125000 0.750000
vt 0.625000 0.000000
vt 0.625000 1.000000
vt 0.875000 0.750000
vt 0.375000 0.250000
vt 0.125000 0.500000
vt 0.625000 0.250000
vt 0.875000 0.500000
vt 0.375000 0.750000
vt 0.625000 0.750000
vt 0.375000 0.500000
vt 0.625000 0.500000
s 0
usemtl marrom
f 717/1135/78 718/1138/78 720/1143/78 719/1141/78
f 719/1141/79 720/1143/79 724/1148/79 723/1147/79
f 723/1147/80 724/1148/80 722/1146/80 721/1145/80
f 721/1145/81 722/1146/81 718/1139/81 717/1136/81
f 719/1142/82 723/1147/82 721/1145/82 717/1137/82
f 724/1148/83 720/1144/83 718/1140/83 722/1146/83
f 725/1149/78 726/1152/78 728/1157/78 727/1155/78
f 727/1155/79 728/1157/79 732/1162/79 731/1161/79
f 731/1161/80 732/1162/80 730/1160/80 729/1159/80
f 729/1159/81 730/1160/81 726/1153/81 725/1150/81
f 727/1156/82 731/1161/82 729/1159/82 725/1151/82
f 732/1162/83 728/1158/83 726/1154/83 730/1160/83
o barra_vermelha.002
v -3.512927 0.812500 -0.806243
v -3.512074 0.812500 0.806256
v -3.487926 0.812500 -0.806257
v -3.487073 0.812500 0.806243
v -3.512927 0.787500 -0.806243
v -3.512074 0.787500 0.806256
v -3.487926 0.787500 -0.806257
v -3.487073 0.787500 0.806243
vn -0.0000 1.0000 -0.0000
vn 1.0000 -0.0000 -0.0005
vn -0.0000 -1.0000 -0.0000
vn -1.0000 -0.0000 0.0005
vn -0.0005 -0.0000 -1.0000
vn 0.0005 -0.0000 1.0000
vt 0.375000 0.000000
vt 0.375000 1.000000
vt 0.125000 0.750000
vt 0.625000 0.000000
vt 0.625000 1.000000
vt 0.875000 0.750000
vt 0.375000 0.250000
vt 0.125000 0.500000
vt 0.625000 0.250000
vt 0.875000 0.500000
vt 0.375000 0.750000
vt 0.625000 0.750000
vt 0.375000 0.500000
vt 0.625000 0.500000
s 0
usemtl blue
f 733/1163/84 734/1166/84 736/1171/84 735/1169/84
f 735/1169/85 736/1171/85 740/1176/85 739/1175/85
f 739/1175/86 740/1176/86 738/1174/86 737/1173/86
f 737/1173/87 738/1174/87 734/1167/87 733/1164/87
f 735/1170/88 739/1175/88 737/1173/88 733/1165/88
f 740/1176/89 736/1172/89 734/1168/89 738/1174/89
o canos
v -0.762500 -0.006250 -0.012500
v -0.762500 2.006250 -0.012500
v -0.737500 -0.006250 -0.012500
v -0.737500 2.006250 -0.012500
v -0.762500 -0.006250 0.012500
v -0.762500 2.006250 0.012500
v -0.737500 -0.006250 0.012500
v -0.737500 2.006250 0.012500
v -1.512500 -0.006250 0.487500
v -1.512500 2.006250 0.487500
v -1.487500 -0.006250 0.487500
v -1.487500 2.006250 0.487500
v -1.512500 -0.006250 0.512500
v -1.512500 2.006250 0.512500
v -1.487500 -0.006250 0.512500
v -1.487500 2.006250 0.512500
v -1.512500 -0.006250 -0.512500
v -1.512500 2.006250 -0.512500
v -1.487500 -0.006250 -0.512500
v -1.487500 2.006250 -0.512500
v -1.512500 -0.006250 -0.487500
v -1.512500 2.006250 -0.487500
v -1.487500 -0.006250 -0.487500
v -1.487500 2.006250 -0.487500
v -1.512500 0.473500 -0.500000
v -1.512500 0.473500 0.500000
v -1.487500 0.473500 -0.500000
v -1.487500 0.473500 0.500000
v -1.512500 0.448500 -0.500000
v -1.512500 0.448500 0.500000
v -1.487500 0.448500 -0.500000
v -1.487500 0.448500 0.500000
v -1.512500 0.913161 0.491161
v -1.512500 1.919109 -0.514787
v -1.487500 0.913161 0.491161
v -1.487500 1.919109 -0.514787
v -1.512500 0.930839 0.508839
v -1.512500 1.936787 -0.497109
v -1.487500 0.930839 0.508839
v -1.487500 1.936787 -0.497109
vn -0.0000 -0.0000 -1.0000
vn 1.0000 -0.0000 -0.0000
vn -0.0000 -0.0000 1.0000
vn -1.0000 -0.0000 -0.0000
vn -0.0000 -1.0000 -0.0000
vn -0.0000 1.0000 -0.0000
vn -0.0000 -0.7071 -0.7071
vn -0.0000 0.7071 0.7071
vn -0.0000 -0.7071 0.7071
vn -0.0000 0.7071 -0.7071
vt 0.375000 0.000000
vt 0.375000 1.000000
vt 0.125000 0.750000
vt 0.625000 0.000000
vt 0.625000 1.000000
vt 0.875000 0.750000
vt 0.375000 0.250000
vt 0.125000 0.500000
vt 0.625000 0.250000
vt 0.875000 0.500000
vt 0.375000 0.750000
vt 0.625000 0.750000
vt 0.375000 0.500000
vt 0.625000 0.500000
vt 0.375000 0.000000
vt 0.375000 1.000000
vt 0.125000 0.750000
vt 0.625000 0.000000
vt 0.625000 1.000000
vt 0.875000 0.750000
vt 0.375000 0.250000
vt 0.125000 0.500000
vt 0.625000 0.250000
vt 0.875000 0.500000
vt 0.375000 0.750000
vt 0.625000 0.750000
vt 0.375000 0.500000
vt 0.625000 0.500000
vt 0.375000 0.000000
vt 0.375000 1.000000
vt 0.125000 0.750000
vt 0.625000 0.000000
vt 0.625000 1.000000
vt 0.875000 0.750000
vt 0.375000 0.250000
vt 0.125000 0.500000
vt 0.625000 0.250000
vt 0.875000 0.500000
vt 0.375000 0.750000
vt 0.625000 0.750000
vt 0.375000 0.500000
vt 0.625000 0.500000
vt 0.375000 0.000000
vt 0.375000 1.000000
vt 0.125000 0.750000
vt 0.625000 0.000000
vt 0.625000 1.000000
vt 0.875000 0.750000
vt 0.375000 0.250000
vt 0.125000 0.500000
vt 0.625000 0.250000
vt 0.875000 0.500000
vt 0.375000 0.750000
vt 0.625000 0.750000
vt 0.375000 0.500000
vt 0.625000 0.500000
vt 0.375000 0.000000
vt 0.375000 1.000000
vt 0.125000 0.750000
vt 0.625000 0.000000
vt 0.625000 1.000000
vt 0.875000 0.750000
vt 0.375000 0.250000
vt 0.125000 0.500000
vt 0.625000 0.250000
vt 0.875000 0.500000
vt 0.375000 0.750000
vt 0.625000 0.750000
vt 0.375000 0.500000
vt 0.625000 0.500000
s 0
usemtl red
f 741/1177/90 742/1180/90 744/1185/90 743/1183/90
f 743/1183/91 744/1185/91 748/1190/91 747/1189/91
f 747/1189/92 748/1190/92 746/1188/92 745/1187/92
f 745/1187/93 746/1188/93 742/1181/93 741/1178/93
f 743/1184/94 747/1189/94 745/1187/94 741/1179/94
f 748/1190/95 744/1186/95 742/1182/95 746/1188/95
f 749/1191/90 750/1194/90 752/1199/90 751/1197/90
f 751/1197/91 752/1199/91 756/1204/91 755/1203/91
f 755/1203/92 756/1204/92 754/1202/92 753/1201/92
f 753/1201/93 754/1202/93 750/1195/93 749/1192/93
f 751/1198/94 755/1203/94 753/1201/94 749/1193/94
f 756/1204/95 752/1200/95 750/1196/95 754/1202/95
f 757/1205/90 758/1208/90 760/1213/90 759/1211/90
f 759/1211/91 760/1213/91 764/1218/91 763/1217/91
f 763/1217/92 764/1218/92 762/1216/92 761/1215/92
f 761/1215/93 762/1216/93 758/1209/93 757/1206/93
f 759/1212/94 763/1217/94 761/1215/94 757/1207/94
f 764/1218/95 760/1214/95 758/1210/95 762/1216/95
f 765/1219/95 766/1222/95 768/1227/95 767/1225/95
f 767/1225/91 768/1227/91 772/1232/91 771/1231/91
f 771/1231/94 772/1232/94 770/1230/94 769/1229/94
f 769/1229/93 770/1230/93 766/1223/93 765/1220/93
f 767/1226/90 771/1231/90 769/1229/90 765/1221/90
f 772/1232/92 768/1228/92 766/1224/92 770/1230/92
f 773/1233/96 774/1236/96 776/1241/96 775/1239/96
f 775/1239/91 776/1241/91 780/1246/91 779/1245/91
f 779/1245/97 780/1246/97 778/1244/97 777/1243/97
f 777/1243/93 778/1244/93 774/1237/93 773/1234/93
f 775/1240/98 779/1245/98 777/1243/98 773/1235/98
f 780/1246/99 776/1242/99 774/1238/99 778/1244/99
o Cube
v 1.557700 0.009209 -0.578265
v 1.557700 0.141209 -0.578265
v 1.804513 0.009209 -0.450330
v 1.804513 0.141209 -0.450330
v 1.392028 0.009209 -0.258652
v 1.392028 0.141209 -0.258652
v 1.638841 0.009209 -0.130716
v 1.638841 0.141209 -0.130716
vn 0.4602 -0.0000 -0.8878
vn 0.8878 -0.0000 0.4602
vn -0.4602 -0.0000 0.8878
vn -0.8878 -0.0000 -0.4602
vn -0.0000 -1.0000 -0.0000
vn -0.0000 1.0000 -0.0000
vt 0.375000 0.000000
vt 0.375000 1.000000
vt 0.125000 0.750000
vt 0.625000 0.000000
vt 0.625000 1.000000
vt 0.875000 0.750000
vt 0.375000 0.250000
vt 0.125000 0.500000
vt 0.625000 0.250000
vt 0.875000 0.500000
vt 0.375000 0.750000
vt 0.625000 0.750000
vt 0.375000 0.500000
vt 0.625000 0.500000
s 0
usemtl marrom
f 781/1247/100 782/1250/100 784/1255/100 783/1253/100
f 783/1253/101 784/1255/101 788/1260/101 787/1259/101
f 787/1259/102 788/1260/102 786/1258/102 785/1257/102
f 785/1257/103 786/1258/103 782/1251/103 781/1248/103
f 783/1254/104 787/1259/104 785/1257/104 781/1249/104
f 788/1260/105 784/1256/105 782/1252/105 786/1258/105
o Cube.001
v 1.995279 0.009209 0.581215
v 1.995279 0.141209 0.581215
v 2.112767 0.009209 0.329262
v 2.112767 0.141209 0.329262
v 2.321550 0.009209 0.733358
v 2.321550 0.141209 0.733358
v 2.439037 0.009209 0.481404
v 2.439037 0.141209 0.481404
vn -0.9063 -0.0000 -0.4226
vn 0.4226 -0.0000 -0.9063
vn 0.9063 -0.0000 0.4226
vn -0.4226 -0.0000 0.9063
vn -0.0000 -1.0000 -0.0000
vn -0.0000 1.0000 -0.0000
vt 0.375000 0.000000
vt 0.375000 1.000000
vt 0.125000 0.750000
vt 0.625000 0.000000
vt 0.625000 1.000000
vt 0.875000 0.750000
vt 0.375000 0.250000
vt 0.125000 0.500000
vt 0.625000 0.250000
vt 0.875000 0.500000
vt 0.375000 0.750000
vt 0.625000 0.750000
vt 0.375000 0.500000
vt 0.625000 0.500000
s 0
usemtl marrom
f 789/1261/106 790/1264/106 792/1269/106 791/1267/106
f 791/1267/107 792/1269/107 796/1274/107 795/1273/107
f 795/1273/108 796/1274/108 794/1272/108 793/1271/108
f 793/1271/109 794/1272/109 790/1265/109 789/1262/109
f 791/1268/110 795/1273/110 793/1271/110 789/1263/110
f 796/1274/111 792/1270/111 790/1266/111 794/1272/111
o Cube.002
v 2.800475 0.009209 0.151763
v 2.800475 0.141209 0.151763
v 2.668679 0.009209 -0.093010
v 2.668679 0.141209 -0.093010
v 3.117447 0.009209 -0.018909
v 3.117447 0.141209 -0.018909
v 2.985651 0.009209 -0.263682
v 2.985651 0.141209 -0.263682
vn -0.8805 -0.0000 0.4741
vn -0.4741 -0.0000 -0.8805
vn 0.8805 -0.0000 -0.4741
vn 0.4741 -0.0000 0.8805
vn -0.0000 -1.0000 -0.0000
vn -0.0000 1.0000 -0.0000
vt 0.375000 0.000000
vt 0.375000 1.000000
vt 0.125000 0.750000
vt 0.625000 0.000000
vt 0.625000 1.000000
vt 0.875000 0.750000
vt 0.375000 0.250000
vt 0.125000 0.500000
vt 0.625000 0.250000
vt 0.875000 0.500000
vt 0.375000 0.750000
vt 0.625000 0.750000
vt 0.375000 0.500000
vt 0.625000 0.500000
s 0
usemtl marrom
f 797/1275/112 798/1278/112 800/1283/112 799/1281/112
f 799/1281/113 800/1283/113 804/1288/113 803/1287/113
f 803/1287/114 804/1288/114 802/1286/114 801/1285/114
f 801/1285/115 802/1286/115 798/1279/115 797/1276/115
f 799/1282/116 803/1287/116 801/1285/116 797/1277/116
f 804/1288/117 800/1284/117 798/1280/117 802/1286/117
